<?xml version="1.0" encoding="UTF-8" standalone="no"?>
<!DOCTYPE svg  PUBLIC '-//W3C//DTD SVG 1.1//EN'  'http://www.w3.org/Graphics/SVG/1.1/DTD/svg11.dtd'>
<svg xmlns="http://www.w3.org/2000/svg">
<defs>
<font id="FuturaExtended-Regular" horiz-adv-x="1184">
<font-face underline-position="-38" font-weight="400" descent="-410" panose-1="2 11 11 0 0 0 0 0 0 0" units-per-em="2048" unicode-range="U+000D-2122" bbox="-105 -549 5392 2104" x-height="961" underline-thickness="25" font-family="FuturaExtended" ascent="1638" cap-height="1544"/>
<missing-glyph horiz-adv-x="2048"/>
<glyph glyph-name=".notdef" horiz-adv-x="2048"/>
<glyph glyph-name="glyph1" horiz-adv-x="2048"/>
<glyph glyph-name="glyph1" horiz-adv-x="2048"/>
<glyph glyph-name="uni000D" horiz-adv-x="2048" unicode=""/>
<glyph glyph-name="space" horiz-adv-x="592" unicode=" "/>
<glyph glyph-name="exclam" horiz-adv-x="656" unicode="!" d="M236 357v1187h188v-1187h-188zM201 72q0 51 36 86t87 35t81.5 -33t30.5 -84q0 -49 -32 -86t-80 -37q-111 0 -123 119z"/>
<glyph glyph-name="quotedbl" horiz-adv-x="899" unicode='&quot;' d="M516 1544h201l-37 -671h-127zM185 1544h200l-37 -671h-129z"/>
<glyph glyph-name="numbersign" d="M449 596h252l55 312h-252zM51 432v164h238l55 312h-215v167h244l72 398h159l-75 -398h256l71 398h160l-72 -398h189v-167h-217l-56 -312h205v-164h-237l-80 -432h-156l76 432h-252l-84 -432h-152l76 432h-205z" unicode="#"/>
<glyph glyph-name="dollar" d="M684 160q90 20 151.5 97.5t61.5 170.5q0 176 -213 289v-557zM387 1184q0 -135 193 -219v436q-82 -10 -137.5 -72t-55.5 -145zM105 396l184 40q48 -263 291 -288v616q-273 122 -333 252q-34 74 -34 160q0 193 158 322q82 67 209 81v185h104v-187q103 0 204 -73 q94 -67 144 -164l-159 -93q-70 119 -189 154v-485q396 -155 396 -471q0 -201 -139 -340q-123 -123 -257 -138v-195h-104v195q-127 0 -240 72q-214 136 -235 357z" unicode="$"/>
<glyph glyph-name="percent" horiz-adv-x="1448" unicode="%" d="M819 320q0 -97 70 -162.5t168 -65.5q137 0 207 113q33 53 33 115q0 134 -120 199q-55 30 -120 30q-137 0 -205 -113q-33 -55 -33 -116zM697 320q0 147 106.5 249.5t253.5 102.5q207 0 310 -176q48 -82 48 -176q0 -202 -178 -305q-83 -48 -180 -48q-96 0 -179 48 q-181 104 -181 305zM228 21l905 1556l92 -53l-905 -1557zM156 1229q0 -98 70.5 -163.5t169.5 -65.5q136 0 205 114q32 53 32 115q0 96 -70 161.5t-167 65.5t-167 -65q-73 -66 -73 -162zM37 1229q0 200 179 301q83 47 180 47q205 0 311 -174q49 -81 49 -174 q0 -148 -105.5 -250t-254.5 -102q-206 0 -310 174q-49 82 -49 178z"/>
<glyph glyph-name="ampersand" horiz-adv-x="1415" unicode="&amp;" d="M484 1272q0 -110 145 -268q207 143 207 260q0 78 -52 122q-48 42 -128 42q-69 0 -117.5 -44t-54.5 -112zM289 412q0 -152 152 -235q68 -37 143 -37q148 0 348 204l-344 420q-114 -77 -156 -109q-143 -109 -143 -243zM109 385q0 207 149 347q80 75 217 167 q-116 128 -150 229q-18 54 -18 109q0 206 163 295q82 45 190 45q219 0 313 -160q43 -73 43 -161q0 -115 -92 -222q-61 -71 -189 -161l326 -394l178 213l125 -129l-188 -219l276 -344h-239l-164 209q-217 -242 -465 -242q-257 0 -400 202q-75 106 -75 216z"/>
<glyph glyph-name="quotesingle" horiz-adv-x="568" unicode="&apos;" d="M56 1016l229 563l160 -63l-273 -547z"/>
<glyph glyph-name="parenleft" horiz-adv-x="600" unicode="(" d="M113 629q0 594 219 1028l147 -113q-87 -181 -134 -446q-42 -234 -42 -465q0 -525 176 -918l-147 -111q-136 255 -191 644q-28 198 -28 381z"/>
<glyph glyph-name="parenright" horiz-adv-x="600" unicode=")" d="M117 -285q124 259 161 659q0 40 7 159q4 68 4 96q0 537 -172 920l147 112q138 -261 190 -650q25 -188 25 -386q0 -388 -93 -715q-47 -164 -117 -306z"/>
<glyph glyph-name="asterisk" horiz-adv-x="885" unicode="*" d="M129 1125l174 100l-172 102l66 117l180 -100v200h143v-192l164 96l72 -121l-176 -102l176 -100l-72 -121l-164 100v-196h-143v200l-176 -100z"/>
<glyph glyph-name="plus" d="M68 436v177h436v436h176v-436h436v-177h-436v-436h-176v436h-436z" unicode="+"/>
<glyph glyph-name="comma" horiz-adv-x="592" unicode="," d="M113 -320l223 564l160 -64l-273 -549z"/>
<glyph glyph-name="hyphen" horiz-adv-x="680" unicode="-" d="M117 580v151h446v-151h-446z"/>
<glyph glyph-name="period" horiz-adv-x="592" unicode="." d="M180 84q0 50 33.5 85.5t83.5 35.5q51 0 85 -35t34 -86q0 -49 -35 -83t-84 -34q-47 0 -82 35t-35 82z"/>
<glyph glyph-name="slash" horiz-adv-x="1129" unicode="/" d="M64 -193l856 1973l145 -68l-852 -1972z"/>
<glyph glyph-name="zero" d="M236 776q0 -215 74 -396q97 -240 282 -240q214 0 311 316q45 147 45 320q0 220 -72 398q-97 241 -284 241q-114 0 -202 -107q-70 -84 -109 -212q-45 -147 -45 -320zM51 772q0 299 119 526q148 281 422 281q310 0 457 -352q26 -62 46 -140q38 -147 38 -315 q0 -204 -58 -378q-60 -181 -175 -295q-134 -132 -308 -132q-168 0 -297 122q-111 104 -175 278q-69 187 -69 405z" unicode="0"/>
<glyph glyph-name="one" d="M252 1368l109 176h344v-1544h-185v1368h-268z" unicode="1"/>
<glyph glyph-name="two" d="M92 0l697 856q114 140 114 256q0 159 -150 249q-67 40 -140 40q-182 0 -270 -151q-40 -69 -40 -129h-190q28 278 235 395q108 61 248 61q201 0 345 -134q147 -137 147 -331q0 -174 -111 -311l-508 -625h623v-176h-1000z" unicode="2"/>
<glyph glyph-name="three" d="M109 381h188q0 -62 46 -127q84 -119 257 -119q176 0 252 150q37 73 37 147q0 177 -124 260q-65 43 -165 43h-37v162q212 0 284 138q22 42 22 98q0 121 -76.5 199.5t-196.5 78.5q-102 0 -169 -60.5t-83 -162.5h-192q62 391 457 391q263 0 386 -200q58 -94 58 -215 q0 -236 -197 -353q217 -102 217 -381v-37q-2 -9 -2 -12q0 -96 -67 -203q-132 -211 -424 -211q-275 0 -407 210q-64 102 -64 204z" unicode="3"/>
<glyph glyph-name="four" d="M336 391h440v646zM17 223l944 1389v-1221h176v-168h-176v-223h-185v223h-759z" unicode="4"/>
<glyph glyph-name="five" d="M60 236l145 137q35 -109 175 -187q76 -42 157 -42q227 0 332 189q51 92 51 187q0 200 -174 312q-89 57 -183 57q-192 0 -299 -137h-41l242 792h619v-176h-488l-96 -315l109 4h12q88 0 180 -42q188 -87 264 -284q39 -101 39 -198q0 -231 -138 -386q-152 -171 -386 -180 l-51 -2h-17l-189 40q-172 73 -263 231z" unicode="5"/>
<glyph glyph-name="six" d="M264 484v-10q0 -79 46 -160q69 -123 197 -165q42 -14 81 -14q13 5 29 5q72 0 153 50q154 95 154 275q0 82 -52 161q-48 73 -123 117q-79 46 -169 46q-78 0 -153 -50q-70 -46 -114 -116q-47 -76 -49 -139zM80 449q4 11 4 22q0 176 168 402l524 704l140 -92l-412 -557l4 -4 q69 37 152 37q118 0 223 -66q101 -63 161 -169q64 -112 64 -257q0 -260 -225 -414q-128 -88 -270 -88q-135 0 -256.5 66t-199 179.5t-77.5 236.5z" unicode="6"/>
<glyph glyph-name="seven" d="M97 60l800 1308h-800v176h1112l-965 -1577z" unicode="7"/>
<glyph glyph-name="eight" d="M328 1153q0 -142 142 -229q63 -39 126 -39q120 0 217 136q43 61 43 124q0 156 -130 231q-61 35 -134 35q-103 0 -183.5 -77.5t-80.5 -180.5zM293 436q0 -170 160 -257q72 -39 143 -39q158 0 253 145q44 67 44 143q0 181 -163 260q-68 33 -138 33q-129 0 -213 -77 q-86 -80 -86 -208zM109 436q0 124 63 223q67 103 181 142q-205 123 -205 375q0 105 59 200q56 89 150 145q98 58 231 58q279 0 396 -218q53 -99 53 -216q0 -225 -205 -344q118 -35 183 -144q60 -99 60 -229q0 -272 -232 -399q-113 -62 -259 -62q-155 0 -261 68 q-214 138 -214 401z" unicode="8"/>
<glyph glyph-name="nine" d="M297 1092q0 -179 163 -278q76 -46 165 -46q191 0 285 163q43 75 43 161q0 183 -167 280q-74 43 -161 43q-179 0 -282 -167q-46 -75 -46 -156zM113 1092q0 184 133 331q148 164 363 164q143 0 266 -69.5t195 -192.5q67 -114 67 -229v-4q0 -133 -79 -272q-33 -58 -78 -119 l-535 -726l-142 101l414 553l-8 8q-55 -37 -141 -37q-120 0 -234 74q-221 144 -221 418z" unicode="9"/>
<glyph glyph-name="colon" horiz-adv-x="592" unicode=":" d="M176 869q0 50 35.5 84t85.5 34q51 0 85 -33.5t34 -84.5q0 -49 -35 -85t-84 -36t-85 36t-36 85zM176 88q0 48 36 82.5t85 34.5t84 -34t35 -83q0 -51 -34 -86t-85 -35q-50 0 -85.5 35.5t-35.5 85.5z"/>
<glyph glyph-name="semicolon" horiz-adv-x="592" unicode=";" d="M277 873q0 48 35 81t84 33t82.5 -36.5t33.5 -85.5q0 -47 -34.5 -80t-81.5 -33q-119 0 -119 121zM97 -320l223 564l159 -64l-270 -549z"/>
<glyph glyph-name="less" d="M68 453v143l1048 424v-192l-788 -303l788 -306v-190z" unicode="&lt;"/>
<glyph glyph-name="equal" d="M68 613v176h1048v-176h-1048zM68 260v176h1048v-176h-1048z" unicode="="/>
<glyph glyph-name="greater" d="M68 33v186l788 306l-788 303v192l1048 -424v-139z" unicode="&gt;"/>
<glyph glyph-name="question" horiz-adv-x="928" unicode="?" d="M353 84q0 49 34 85t82 36q71 0 105 -63q14 -26 14 -54q0 -48 -35.5 -84.5t-83.5 -36.5q-49 0 -82.5 34t-33.5 83zM101 1237q0 89 54 171q111 169 314 169q244 0 334 -204q37 -84 37 -156q0 -167 -115 -260q-73 -59 -212 -98q-59 -17 -97 -35q-92 -45 -92 -132 q0 -57 44.5 -100t100.5 -43q67 0 109 47q39 45 39 113h184q0 -107 -65.5 -195.5t-167.5 -121.5q-47 -15 -97 -15q-188 0 -287 162q-49 80 -49 174l4 5l1 3q0 185 222 272l122 48q155 61 168 155q0 129 -94 185q-40 24 -89 24q-72 0 -126 -52t-54 -124q7 -32 10 -65h-190 q0 20 -8 73z"/>
<glyph glyph-name="at" horiz-adv-x="1641" unicode="@" d="M553 731q0 -101 48 -175q56 -85 151 -85l5 3l3 1q225 0 268 265l4 69v16q0 83 -51.5 141t-144.5 58q-117 0 -196 -85q-87 -94 -87 -208zM72 781q4 13 4 43q0 199 114 380q110 176 287 275.5t379 99.5q138 0 270 -54q203 -83 323 -257t120 -391q0 -59 -16 -127 q-11 -48 -42 -127q-49 -127 -137 -210q-103 -97 -225 -97q-113 0 -133 129q-123 -129 -281 -129q-197 0 -299 198q-47 93 -47 181v14l2 43q5 101 64 206t143 161q96 65 207 65q172 0 279 -147l28 127h144l-123 -644q6 -49 35 -55l18 -4q52 0 108 71q40 51 68 117 q43 102 43 191q0 328 -246 490q-129 85 -311 85q-236 0 -416 -172q-192 -183 -192 -446q0 -405 328 -588q143 -80 335 -80q95 0 192 22q120 27 173 77l152 -119q-100 -57 -184 -87q-151 -55 -380 -55q-281 0 -516 199q-268 227 -268 615z"/>
<glyph glyph-name="A" horiz-adv-x="1440" unicode="A" d="M449 563h547l-275 625zM-17 0l738 1612l739 -1612h-208l-177 387h-706l-176 -387h-210z"/>
<glyph glyph-name="B" horiz-adv-x="1096" unicode="B" d="M324 860h88q293 0 293 256q0 143 -82 204q-71 52 -219 52h-80v-512zM324 172h155q357 0 357 252q0 148 -114 223q-97 62 -253 62h-145v-537zM131 0v1544h193q323 0 465 -144q96 -97 96 -232q0 -260 -176 -344q179 -15 274 -206q45 -91 45 -198q0 -211 -173 -324 q-147 -96 -367 -96h-357z"/>
<glyph glyph-name="C" horiz-adv-x="1352" unicode="C" d="M60 793q0 255 156 454q119 151 292 240q177 90 365 90q223 0 399 -100v-225q-179 153 -412 153q-245 0 -426.5 -183t-181.5 -429q0 -280 181.5 -464.5t426.5 -184.5q221 0 412 159v-227q-191 -109 -403 -109q-160 0 -307 62q-304 128 -437 439q-65 152 -65 325z"/>
<glyph glyph-name="D" horiz-adv-x="1360" unicode="D" d="M324 176h117q440 0 606 289q78 136 78 311q0 301 -208 455q-185 137 -497 137h-96v-1192zM131 0v1544h322q253 0 451 -91q224 -104 334 -308q83 -154 83 -352q0 -335 -202 -552q-225 -241 -648 -241h-340z"/>
<glyph glyph-name="E" horiz-adv-x="1067" unicode="E" d="M148 0v1544h829v-176h-637v-432h621v-176h-621v-584h637v-176h-829z"/>
<glyph glyph-name="F" horiz-adv-x="973" unicode="F" d="M144 0v1544h749v-176h-553v-432h537v-176h-537v-760h-196z"/>
<glyph glyph-name="G" horiz-adv-x="1596" unicode="G" d="M41 781q0 187 102 373q155 284 452 382q124 41 229 41q210 0 361.5 -69.5t291.5 -227.5l-141 -131q-191 252 -500 252q-152 0 -291 -82q-134 -78 -220 -210q-93 -142 -93 -316l4 -12q0 -168 84 -317.5t227 -237.5q134 -82 264 -82q134 0 254.5 59.5t197.5 167.5 q85 119 85 233h-404v177h613v-68q0 -314 -204 -529q-207 -219 -519 -219h-44q-10 2 -14 2q-160 0 -327 98q-140 82 -230 204q-178 242 -178 512z"/>
<glyph glyph-name="H" horiz-adv-x="1385" unicode="H" d="M131 0v1544h193v-620h737v620h191v-1544h-191v744h-737v-744h-193z"/>
<glyph glyph-name="I" horiz-adv-x="475" unicode="I" d="M140 0v1544h192v-1544h-192z"/>
<glyph glyph-name="J" horiz-adv-x="740" unicode="J" d="M-41 37l97 160q86 -53 157 -53q83 0 139 66q48 57 63 145q13 78 13 190v999h193v-999q0 -267 -81 -405q-103 -173 -347 -173q-119 0 -234 70z"/>
<glyph glyph-name="K" horiz-adv-x="1229" unicode="K" d="M148 0v1544h192v-667l656 667h251l-694 -692l707 -852h-260l-584 721l-76 -78v-643h-192z"/>
<glyph glyph-name="L" horiz-adv-x="789" unicode="L" d="M148 0v1544h192v-1368h469v-176h-661z"/>
<glyph glyph-name="M" horiz-adv-x="1745" unicode="M" d="M29 0l315 1612l529 -1221l532 1221l316 -1612h-201l-180 1028l-467 -1065l-465 1069l-185 -1032h-194z"/>
<glyph glyph-name="N" horiz-adv-x="1608" unicode="N" d="M129 0v1620l1159 -1220v1144h197v-1608l-1165 1217v-1153h-191z"/>
<glyph glyph-name="O" horiz-adv-x="1696" unicode="O" d="M232 772q0 -169 81.5 -311.5t225.5 -227.5t309 -85q166 0 307.5 83.5t225.5 228.5t84 312q0 168 -81 313t-224.5 230.5t-311.5 85.5q-167 0 -308 -83t-224.5 -228.5t-83.5 -317.5zM41 772q0 217 108 402t296 295q185 108 403 108q337 0 573 -234t236 -571 q0 -217 -107 -401.5t-295 -294t-407 -109.5q-217 0 -402 107t-295 295t-110 403z"/>
<glyph glyph-name="P" horiz-adv-x="1012" unicode="P" d="M340 819l64 -2q16 -1 32 -1q375 0 375 296q0 260 -387 260h-84v-553zM144 0l4 1544h243q149 0 272 -23q161 -30 247 -147q81 -110 81 -278q0 -234 -171 -351q-144 -98 -324 -98h-156v-647h-196z"/>
<glyph glyph-name="Q" horiz-adv-x="1696" unicode="Q" d="M232 756q0 -243 180.5 -427.5t423.5 -184.5q155 0 319 92l-354 344h244l243 -244q177 188 177 473q0 118 -56 239q-102 220 -341 310q-114 43 -240 43q-109 0 -228 -52q-175 -76 -274 -240q-94 -157 -94 -353zM41 756q0 340 227 578q230 243 568 243q217 0 406.5 -109 t302 -295.5t112.5 -400.5q0 -352 -242 -567l242 -238h-233l-136 138q-211 -142 -432 -142q-175 0 -326 65q-306 132 -430 435q-59 144 -59 293z"/>
<glyph glyph-name="R" horiz-adv-x="1112" unicode="R" d="M340 811q161 0 262 23q209 48 209 266q0 272 -407 272h-64v-561zM148 0v1544h276q270 0 387 -84q180 -129 180 -348q0 -171 -101 -293t-269 -147l487 -672h-231l-457 652h-80v-652h-192z"/>
<glyph glyph-name="S" horiz-adv-x="1100" unicode="S" d="M68 400l192 41q0 -92 47 -163q86 -130 252 -130q111 0 191.5 73t89.5 183l4 51q1 10 1 20q0 100 -83 165q-72 56 -216 118q-170 73 -224 105q-187 111 -187 329q0 147 121 262q132 125 336 125q260 0 395 -235l-151 -92q-87 149 -252 149q-146 0 -222 -114 q-34 -51 -34 -99q0 -147 151 -205l176 -68q269 -104 341 -274q41 -97 41 -196q0 -146 -82 -262.5t-219 -174.5q-96 -41 -187 -41q-257 0 -399 207q-69 100 -82 226z"/>
<glyph glyph-name="T" horiz-adv-x="932" unicode="T" d="M4 1368v176h928v-176h-369v-1368h-190v1368h-369z"/>
<glyph glyph-name="U" horiz-adv-x="1372" unicode="U" d="M121 553v991h191v-944q0 -198 84 -317q97 -135 288 -135q377 0 377 469v927h191v-981q0 -260 -153 -426q-157 -170 -415 -170q-170 0 -300 79q-135 82 -203 233q-60 134 -60 274z"/>
<glyph glyph-name="V" horiz-adv-x="1313" unicode="V" d="M-17 1544h214l459 -1140l460 1140h211l-671 -1624z"/>
<glyph glyph-name="W" horiz-adv-x="2104" unicode="W" d="M-25 1544h210l432 -1103l436 1138l440 -1138l430 1103h209l-639 -1604l-440 1131l-436 -1135z"/>
<glyph glyph-name="X" horiz-adv-x="1176" unicode="X" d="M0 0l484 811l-424 733h221l315 -561l336 561h221l-448 -735l471 -809h-219l-361 637l-381 -637h-215z"/>
<glyph glyph-name="Y" horiz-adv-x="1172" unicode="Y" d="M-13 1544h222l379 -659l381 659h219l-504 -872v-672h-192v672z"/>
<glyph glyph-name="Z" horiz-adv-x="1133" unicode="Z" d="M21 0l780 1368h-672v176h987l-784 -1368h784v-176h-1095z"/>
<glyph glyph-name="bracketleft" horiz-adv-x="637" unicode="[" d="M125 -396v2057h391v-176h-204v-1708h204v-173h-391z"/>
<glyph glyph-name="backslash" horiz-adv-x="1129" unicode="\" d="M64 1780h172l829 -1780h-172z"/>
<glyph glyph-name="bracketright" horiz-adv-x="637" unicode="]" d="M125 -223h199v1712h-199v172h391v-2057h-391v173z"/>
<glyph glyph-name="asciicircum" d="M68 633l407 911h234l407 -911h-192l-332 744l-332 -744h-192z" unicode="^"/>
<glyph glyph-name="underscore" horiz-adv-x="1024" unicode="_" d="M0 -232h1024v-153h-1024v153z"/>
<glyph glyph-name="grave" horiz-adv-x="735" unicode="`" d="M156 1415l168 88l256 -339l-88 -56z"/>
<glyph glyph-name="a" horiz-adv-x="1141" unicode="a" d="M236 484q0 -214 154 -311q70 -44 143 -44q150 0 237 107q82 99 82 252q0 140 -82 236q-87 100 -225 100q-168 0 -262 -156q-47 -78 -47 -184zM51 484q0 313 236 444q106 59 225 59q52 0 114 -20q142 -46 218 -174v168h184v-961h-184v156q-134 -189 -332 -189 q-105 0 -187 39q-135 64 -207 197q-67 124 -67 281z"/>
<glyph glyph-name="b" horiz-adv-x="1141" unicode="b" d="M289 484q0 -146 79 -245q85 -108 228 -108q149 0 232 107q75 97 75 250q0 190 -141 285q-76 51 -170 51q-170 0 -259 -159q-44 -78 -44 -181zM113 0v1780h184v-987q127 194 332 194q203 0 334 -147q125 -141 125 -344q0 -136 -43 -241q-78 -190 -254 -258 q-78 -30 -148 -30q-121 0 -199 46q-66 39 -147 143v-156h-184z"/>
<glyph glyph-name="c" horiz-adv-x="903" unicode="c" d="M51 469q0 141 69 259.5t192 187.5q120 67 260 67q149 0 260 -59v-240q-110 131 -283 131q-126 0 -219.5 -100t-93.5 -227q0 -195 146 -295q77 -53 173 -53q90 0 153 30q56 26 124 94v-235q-116 -58 -260 -58q-139 0 -257 62q-121 64 -192.5 179.5t-71.5 256.5z"/>
<glyph glyph-name="d" horiz-adv-x="1141" unicode="d" d="M236 471q0 -177 123 -282q68 -58 174 -58q206 0 285 179q34 77 34 165q0 215 -149 305q-73 44 -166 44q-191 0 -268 -187q-33 -80 -33 -166zM51 471q0 145 56 262q62 130 179 196q103 58 222 58q99 0 195 -54t141 -140v987h184v-1780h-184v156q-125 -189 -328 -189 q-226 0 -353 169q-112 149 -112 335z"/>
<glyph glyph-name="e" horiz-adv-x="1000" unicode="e" d="M248 588h537q-15 106 -81 171q-70 69 -175 69q-112 0 -187 -64.5t-94 -175.5zM51 516q0 88 38 185q70 179 235 249q87 37 192 37q302 0 406 -254q45 -110 45 -211v-16l-2 -57h-725q0 -136 79 -226q84 -94 218 -94q177 0 274 191l158 -92q-158 -261 -453 -261 q-210 0 -339 152q-126 148 -126 397z"/>
<glyph glyph-name="f" horiz-adv-x="563" unicode="f" d="M80 789v172h84v475q0 369 305 369q75 0 135 -25v-188q-71 41 -129 41q-127 0 -127 -232v-440h256v-172h-256v-789h-184v789h-84z"/>
<glyph glyph-name="g" horiz-adv-x="1137" unicode="g" d="M236 492q0 -119 50 -210q56 -102 161 -137q42 -14 90 -14q191 0 275 168q40 80 40 189q0 215 -166 300q-70 36 -137 36q-193 0 -275 -169q-38 -78 -38 -163zM51 500q0 182 115 327q127 160 330 160q222 0 344 -198v172h184v-961q0 -422 -244 -512q-100 -37 -217 -37 q-287 0 -408 207q-58 99 -58 225h184q0 -268 299 -268q260 0 260 317v224l-41 -62q-51 -77 -148 -108q-59 -19 -151 -19q-274 0 -392 255q-57 123 -57 278z"/>
<glyph glyph-name="h" horiz-adv-x="1071" unicode="h" d="M129 0v1780h183v-948h4q92 155 293 155q335 0 335 -387v-600h-184v600q0 120 -53.5 172t-173.5 52q-221 0 -221 -299v-525h-183z"/>
<glyph glyph-name="i" horiz-adv-x="520" unicode="i" d="M168 0v961h185v-961h-185zM131 1405q0 50 39.5 86.5t89.5 36.5q54 0 90.5 -38.5t36.5 -92.5q0 -53 -39 -89t-92 -36q-55 0 -90 38.5t-35 94.5z"/>
<glyph glyph-name="j" horiz-adv-x="520" unicode="j" d="M168 -549v1510h185v-1510h-185zM131 1405q0 48 40 85.5t89 37.5q57 0 92 -38.5t35 -96.5q0 -50 -38.5 -85.5t-88.5 -35.5q-56 0 -92.5 38.5t-36.5 94.5z"/>
<glyph glyph-name="k" horiz-adv-x="948" unicode="k" d="M140 0v1780h184v-1184l360 365h244l-408 -402l453 -559h-242l-344 436l-63 -63v-373h-184z"/>
<glyph glyph-name="l" horiz-adv-x="457" unicode="l" d="M135 0v1780h185v-1780h-185z"/>
<glyph glyph-name="m" horiz-adv-x="1573" unicode="m" d="M121 0v961h182v-121h4q35 68 139 120q54 27 117 27q182 0 277 -172q100 172 293 172q319 0 319 -399v-588h-184v549q0 127 -30 188q-43 87 -154 87q-203 0 -203 -304v-520h-184v512q0 138 -30 208q-44 104 -163 104q-201 0 -201 -320v-504h-182z"/>
<glyph glyph-name="n" horiz-adv-x="1071" unicode="n" d="M129 0v961h183v-137q106 163 297 163q335 0 335 -411v-576h-184v580q0 123 -43 179q-49 65 -168 65q-237 0 -237 -299v-525h-183z"/>
<glyph glyph-name="o" horiz-adv-x="1104" unicode="o" d="M223 475q0 -190 165 -286q77 -45 165 -45q135 0 231.5 97.5t96.5 233.5q0 192 -164 291q-74 45 -164 45q-188 0 -285 -167q-45 -78 -45 -169zM41 475q0 139 68 256.5t189 187.5q118 68 255 68q138 0 255.5 -67t187 -186t69.5 -259q0 -136 -68.5 -253t-186.5 -186 t-257 -69q-136 0 -255 68.5t-188 186t-69 253.5z"/>
<glyph glyph-name="p" horiz-adv-x="1141" unicode="p" d="M289 484q0 -148 78 -247q84 -108 229 -108l8 2q91 0 160 50q139 100 139 298q0 148 -82 244q-87 101 -233 101q-167 0 -255 -156q-44 -78 -44 -184zM113 -549v1510h184v-160h6q53 99 187 156q71 30 143 30q264 0 390 -238q61 -115 61 -265q0 -291 -206 -443 q-101 -74 -235 -74q-220 0 -346 189v-705h-184z"/>
<glyph glyph-name="q" horiz-adv-x="1141" unicode="q" d="M236 484q0 -149 78 -247q85 -106 231 -106q196 0 273 176q34 78 34 168q0 228 -168 312q-74 37 -155 37q-125 0 -212 -110q-81 -102 -81 -230zM51 475q0 158 80 294q85 145 227 197q57 21 121 21q245 0 365 -194v168h184v-1510h-184v705q-51 -84 -141 -136.5t-187 -52.5 q-207 0 -339 152q-126 146 -126 356z"/>
<glyph glyph-name="r" horiz-adv-x="721" unicode="r" d="M140 0v961h184v-164q85 190 264 190q92 0 156 -43l-84 -172q-46 37 -123 37q-213 0 -213 -321v-488h-184z"/>
<glyph glyph-name="s" horiz-adv-x="789" unicode="s" d="M72 180l160 76q54 -127 172 -127q51 0 92.5 32.5t52.5 82.5q0 74 -74 128q-31 23 -72 44l-71 37q-215 112 -215 260q0 62 36 129q78 145 247 145q171 0 264 -168l-152 -79q-42 84 -125 84q-43 0 -70.5 -28t-27.5 -71q0 -57 86 -99l161 -79q199 -98 199 -270 q0 -168 -157 -265q-73 -45 -158 -45q-262 0 -348 213z"/>
<glyph glyph-name="t" horiz-adv-x="492" unicode="t" d="M51 789v172h101v366h184v-366h184v-172h-184v-789h-184v789h-101z"/>
<glyph glyph-name="u" horiz-adv-x="1049" unicode="u" d="M121 391v570h182v-545q0 -116 56 -196q63 -91 174 -91q215 0 215 287v545h184v-553q0 -267 -171 -390q-90 -65 -228 -65q-242 0 -357 209q-55 100 -55 229z"/>
<glyph glyph-name="v" horiz-adv-x="912" unicode="v" d="M-29 961h209l277 -600l274 600h209l-483 -994z"/>
<glyph glyph-name="w" horiz-adv-x="1473" unicode="w" d="M-33 961h209l281 -613l278 664l285 -664l277 613h211l-488 -994l-285 642l-278 -642z"/>
<glyph glyph-name="x" horiz-adv-x="1000" unicode="x" d="M-29 0l429 520l-344 441h217l227 -314l248 314h225l-352 -441l411 -520h-217l-315 387l-303 -387h-226z"/>
<glyph glyph-name="y" horiz-adv-x="991" unicode="y" d="M-29 961h218l323 -613l299 613h209l-776 -1510h-207l375 713z"/>
<glyph glyph-name="z" horiz-adv-x="1012" unicode="z" d="M4 0l648 789h-535v172h895l-647 -789h618v-172h-979z"/>
<glyph glyph-name="braceleft" horiz-adv-x="684" unicode="{" d="M101 555v150q79 25 119 124q32 79 32 175v405q0 117 95 212q40 40 77 40h160v-172h-84q-59 0 -59 -96v-428q0 -210 -156 -336q156 -103 156 -348v-406q0 -53 13 -73q16 -25 66 -25h64v-173h-156q-86 0 -148 136q-28 61 -28 120v396q0 236 -151 299z"/>
<glyph glyph-name="bar" horiz-adv-x="1168" unicode="|" d="M496 0v1780h176v-1780h-176z"/>
<glyph glyph-name="braceright" horiz-adv-x="684" unicode="}" d="M101 -223h84q59 0 59 92v428q0 211 156 336q-156 110 -156 348v408q0 100 -73 100h-7l-63 -4v176h143q113 0 165 -135q23 -59 23 -121v-401q0 -230 152 -295v-154q-78 -23 -119 -123q-33 -81 -33 -176v-391q0 -139 -88 -221q-43 -40 -100 -40h-143v173z"/>
<glyph glyph-name="asciitilde" d="M68 469l43 57q48 63 77 93q96 98 228 98q107 -15 239 -120q112 -89 160 -89q75 15 166 176l140 -104q-137 -248 -328 -248q-49 0 -107 30q-105 70 -238 149q-44 26 -87 26q-74 -21 -164 -164z" unicode="~"/>
<glyph glyph-name="uni00A0" horiz-adv-x="250" unicode=" "/>
<glyph glyph-name="exclamdown" horiz-adv-x="656" unicode="¡" d="M240 -529v1189h184v-1189h-184zM209 912v8q0 45 33 85t82 40q54 0 87.5 -35.5t33.5 -89.5q0 -53 -34 -86t-87 -33q-109 0 -115 111z"/>
<glyph glyph-name="cent" d="M385 760q0 -63 36 -137q73 -150 212 -170v651q-141 -17 -214 -183q-34 -77 -34 -161zM205 793q0 101 54 213q115 238 374 278v160h98v-156q135 0 250 -63v-242q-98 133 -250 133v-667q133 0 250 123v-240q-113 -59 -254 -59v-172h-94v180q-256 34 -372 267 q-56 113 -56 245z" unicode="¢"/>
<glyph glyph-name="sterling" d="M25 47q98 175 210 217q45 17 101 17q29 90 29 168q0 100 -45 168h-264v118h204q-117 210 -117 355q0 11 1 22l4 60q7 99 89 202q75 94 172 144q113 59 238 59q171 0 323 -104q171 -117 171 -373l-184 -72l2 43v15q0 77 -38 151q-57 113 -178 152q-37 12 -79 12 q-169 0 -284 -160q-52 -73 -52 -149q0 -110 87 -256l60 -101h301v-118h-256q29 -89 29 -176q0 -27 -8 -101q-2 -8 -8 -38l-8 -38q34 -10 133 -48l125 -48q42 -16 86 -16q76 0 138 102l30 49l155 -94q-47 -106 -128 -171q-90 -71 -199 -71q-90 0 -247 63q-166 67 -253 67 q-131 0 -180 -130z" unicode="£"/>
<glyph glyph-name="currency" d="M232 617q0 -182 171 -295q81 -53 181 -53q164 0 265 106q99 103 99 268q0 81 -48 158q-46 74 -118 115q-86 49 -186 49q-223 0 -320 -178q-44 -81 -44 -170zM68 604q0 159 88 304l-84 88l125 125l92 -93q124 101 303 101q171 0 305 -101l90 93l125 -125l-84 -88 q88 -128 88 -299q0 -150 -88 -285l84 -92l-125 -119l-90 88q-128 -96 -313 -96q-164 0 -295 96l-92 -88l-125 119l84 92q-88 149 -88 280z" unicode="¤"/>
<glyph glyph-name="yen" d="M-8 1544h221l379 -659l381 659h219l-323 -561h303v-118h-371l-113 -193v-20h484v-119h-484v-533h-192v533h-483v119h483v20l-111 193h-372v118h303z" unicode="¥"/>
<glyph glyph-name="brokenbar" horiz-adv-x="692" unicode="¦" d="M484 0v1772h176v-1772h-176z"/>
<glyph glyph-name="section" d="M264 877l4 -26q1 -7 5 -23q20 -62 126 -124q37 -21 166 -80q141 -64 232 -116q123 86 123 201q0 75 -47 123q-31 32 -114 74l-372 190q-123 -81 -123 -219zM80 856q0 194 201 332q-96 98 -96 223q0 98 57 186q55 84 145.5 133.5t192.5 49.5q240 0 353 -172 q54 -82 54 -172h-178q0 84 -71 133q-62 43 -150 43q-189 0 -215 -201q0 -89 91 -155q58 -42 104 -64l154 -74l163 -81q219 -109 219 -297q0 -86 -57 -181q-52 -88 -127 -143q108 -108 108 -256q0 -233 -236 -339q-109 -49 -229 -49q-208 0 -324 132q-110 126 -110 336h183 q0 -169 123 -255q64 -45 145 -45q103 0 180 62q84 66 84 166q0 60 -39 117q-58 62 -199 128l-266 124q-79 37 -148 88q-112 83 -112 231z" unicode="§"/>
<glyph glyph-name="dieresis" horiz-adv-x="965" unicode="¨" d="M572 1301q0 49 38 86t87 37q51 0 86.5 -36t35.5 -87q0 -52 -35 -88.5t-87 -36.5t-88.5 36.5t-36.5 88.5zM140 1301q0 50 37 86.5t87 36.5q51 0 87 -36t36 -87q0 -52 -35.5 -88.5t-87.5 -36.5t-88 36.5t-36 88.5z"/>
<glyph glyph-name="copyright" horiz-adv-x="1641" unicode="©" d="M404 760q0 317 233 432q103 51 219 51q201 0 306 -144q51 -70 67 -159h-125q-43 172 -264 172q-147 0 -228 -103q-75 -94 -75 -245q0 -190 150 -275q70 -40 169 -40q204 0 248 180h125q-24 -192 -201 -275q-81 -38 -172 -38q-254 0 -381 204q-71 114 -71 240zM144 772 q0 -181 90 -336t246.5 -245t338.5 -90q183 0 337 87.5t246.5 244t92.5 339.5q0 284 -196 480t-480 196q-181 0 -336.5 -89.5t-247 -246t-91.5 -340.5zM13 772q0 217 107 402t294.5 294t404.5 109q337 0 573 -234t236 -571q0 -217 -107 -401.5t-295 -294t-407 -109.5 q-216 0 -401 106.5t-295 293t-110 405.5z"/>
<glyph glyph-name="ordfeminine" horiz-adv-x="684" unicode="ª" d="M144 1280q0 -91 52 -151q55 -64 144 -64q92 0 148.5 56t56.5 147q0 94 -55.5 153.5t-149.5 59.5q-82 0 -139 -59.5t-57 -141.5zM25 1276q0 173 139 261q67 42 152 42q138 0 225 -114v96h119v-578h-119v97q-82 -115 -213 -115q-135 0 -219 88t-84 223zM25 756v96h635v-96 h-635z"/>
<glyph glyph-name="guillemotleft" horiz-adv-x="1071" unicode="«" d="M457 656l371 493l116 -84l-307 -409l307 -392l-116 -84zM60 652l376 497l113 -84l-305 -409l305 -392l-113 -84z"/>
<glyph glyph-name="logicalnot" d="M68 613v176h1048v-553h-176v377h-872z" unicode="¬"/>
<glyph glyph-name="uni00AD" horiz-adv-x="680" unicode="­" d="M117 580v151h446v-151h-446z"/>
<glyph glyph-name="registered" horiz-adv-x="1641" unicode="®" d="M641 865h271q159 0 159 104q0 119 -178 119h-252v-223zM508 312v909h391q301 0 301 -238q0 -112 -64 -182t-175 -70l227 -419h-147l-232 419h-168v-419h-133zM144 772q0 -181 90 -336t246.5 -245t338.5 -90q183 0 337 87.5t246.5 244t92.5 339.5q0 284 -196 480t-480 196 q-181 0 -336.5 -89.5t-247 -246t-91.5 -340.5zM13 772q0 217 107 402t294.5 294t404.5 109q337 0 573 -234t236 -571q0 -217 -107 -401.5t-295 -294t-407 -109.5q-216 0 -401 106.5t-295 293t-110 405.5z"/>
<glyph glyph-name="macron" horiz-adv-x="2364" unicode="¯"/>
<glyph glyph-name="degree" horiz-adv-x="2364" unicode="°"/>
<glyph glyph-name="plusminus" d="M68 621v176h436v356h176v-356h436v-176h-436v-352h-176v352h-436zM68 0v176h1048v-176h-1048z" unicode="±"/>
<glyph glyph-name="uni00B2" horiz-adv-x="709" unicode="²" d="M33 621l446 508q66 75 66 147q0 68 -53.5 120t-122.5 52q-125 0 -174 -96q-15 -29 -15 -59h-137q10 79 48 139q86 137 270 137q125 0 220 -81q99 -85 99 -208q0 -107 -71 -188l-312 -357h383v-114h-647z"/>
<glyph glyph-name="uni00B3" horiz-adv-x="709" unicode="³" d="M41 860h127q18 -133 189 -133q73 0 128.5 47t55.5 119q0 98 -94 148q-45 24 -107 24h-8v115q140 0 184 78q13 23 13 55q0 67 -56 107q-50 36 -120 36q-148 0 -148 -112h-141q45 235 305 235q119 0 200 -65q87 -71 87 -187q0 -135 -131 -206q147 -68 147 -242v-14 q-4 -119 -108 -189q-92 -63 -216 -63q-183 0 -266 125q-41 62 -41 122z"/>
<glyph glyph-name="acute" horiz-adv-x="735" unicode="´" d="M156 1164l256 339l172 -88l-340 -307z"/>
<glyph glyph-name="paragraph" d="M84 1065q0 189 139 340q41 45 89 76q97 63 192 63h600v-172h-127v-1684h-172v1684h-125v-1684h-176v892q-103 0 -189 44q-231 118 -231 441z" unicode="¶"/>
<glyph glyph-name="periodcentered" d="M205 776q0 221 194 332q89 51 193 51q228 0 338 -190q51 -88 51 -193q0 -224 -194 -336q-92 -53 -195 -53q-220 0 -334 195q-53 91 -53 194z" unicode="·"/>
<glyph glyph-name="cedilla" horiz-adv-x="676" unicode="¸" d="M176 -316l181 279l143 -60l-215 -276z"/>
<glyph glyph-name="uni00B9" horiz-adv-x="709" unicode="¹" d="M131 1428l74 116h236v-923h-134v807h-176z"/>
<glyph glyph-name="ordmasculine" horiz-adv-x="664" unicode="º" d="M121 1272q0 -86 62.5 -143.5t148.5 -57.5q125 0 186 106q27 47 27 95q0 85 -61.5 143t-147.5 58q-126 0 -187 -100q-28 -46 -28 -101zM0 1272q0 164 148 258q77 49 188 49q196 0 287 -158q41 -71 41 -149q0 -179 -168 -265q-82 -42 -189 -42q-83 0 -165 53 q-142 92 -142 254zM0 756v96h664v-96h-664z"/>
<glyph glyph-name="guillemotright" horiz-adv-x="1071" unicode="»" d="M525 252l307 412l-307 389l116 84l375 -473l-375 -496zM131 256l310 404l-310 393l117 88l373 -481l-373 -492z"/>
<glyph glyph-name="onequarter" horiz-adv-x="1776" unicode="¼" d="M1204 252h261v348zM969 135l627 834v-717h100v-117h-100v-135h-131v135h-496zM391 25l902 1552l108 -53l-905 -1557zM88 1428l68 116h235v-923h-131v807h-172z"/>
<glyph glyph-name="onehalf" horiz-adv-x="1776" unicode="½" d="M1049 0l446 512q66 76 66 144t-54 120t-122 52q-74 0 -128 -40q-61 -44 -61 -116h-135q17 167 153 238q73 38 163 38q177 0 273 -138q46 -66 46 -146q0 -112 -72 -193l-311 -350h383v-121h-647zM289 25l899 1552l105 -53l-902 -1557zM88 1428l68 116h235v-923h-131v807 h-172z"/>
<glyph glyph-name="threequarters" horiz-adv-x="1776" unicode="¾" d="M1204 252h261v348zM969 135l627 834v-717h100v-117h-100v-135h-131v135h-496zM508 25l901 1552l107 -53l-903 -1557zM84 860h131q12 -133 185 -133q73 0 128.5 47t55.5 119v4q0 100 -95 146q-46 22 -108 22v115q132 0 178 79q13 22 13 54q0 66 -54 107q-49 36 -118 36 q-152 0 -152 -112h-135q36 235 299 235q120 0 201 -65q88 -70 88 -187q0 -136 -133 -206q149 -63 149 -236v-20q-6 -120 -109 -190q-91 -62 -217 -62q-181 0 -265 125q-42 63 -42 122z"/>
<glyph glyph-name="questiondown" horiz-adv-x="928" unicode="¿" d="M340 924q0 48 36.5 84.5t84.5 36.5q46 0 80.5 -35.5t34.5 -81.5q0 -50 -35 -86.5t-84 -36.5t-83 35t-34 84zM88 -180q0 163 117 256q68 54 212 97q62 19 99 36q84 40 84 119q0 59 -39 105t-96 46q-68 0 -110.5 -45t-42.5 -114h-183q0 178 152 278q82 54 184 54 q183 0 278 -165q46 -80 46 -180q0 -190 -208 -266l-112 -41q-183 -67 -196 -164q0 -135 87 -188q41 -25 93 -25q73 0 128.5 52t55.5 124q0 32 -12 70h190q4 -25 4 -78q0 -194 -180 -295q-80 -45 -174 -45q-245 0 -338 210q-39 88 -39 159z"/>
<glyph glyph-name="Agrave" horiz-adv-x="2634" unicode="À" d="M1564 753l9 -12l50 17q67 -98 67 -242q0 -142 -68 -238l893 -302l-1219 -406l274 102h12l29 11h-12l103 38l252 84h27l29 17h-5l444 148h24v6v11h-39l-736 249l659 -249h-52l-701 267q-5 -6 -10 -11l526 -256h-41l-496 244q-15 -14 -31 -27l303 -217h-32l-284 207 q-38 -27 -84 -43l111 -164h-21l-103 160q-62 -20 -137 -21v-139h-15v139q-76 1 -139 22l-105 -161h-19l111 166q-44 16 -82 43l-285 -209h-30l302 219q-17 12 -31 26q-1 1 -1 2l-497 -247h-40l527 258q-6 6 -11 12l-704 -270h-50l722 273l-802 -273h-46v-11v-6h32l445 -148 h-6l27 -17h30l259 -86l96 -36h-11l16 -11h24l274 -102l-1220 406l896 303q-68 96 -68 237q0 143 67 240l325 -109l-277 104h-21l-16 11h8l-12 4l2 4l-98 32l-212 80h-26l-51 17h32l-386 145h-79l-36 12h-14h-34q17 -6 34 -11v11h-34l1220 413l-312 -118q-7 -2 -14 -5h2 l-87 -33l-734 -248h80l-24 -9h50l24 9h189l-18 -9l25 -12h-188l384 -145h103l35 -17h-93l271 -102q5 6 9 11l61 -29h36l-85 41l1 1q14 14 29 27l-72 51h-119l-35 17h131l-202 145h-226l-25 12l18 9h228q-6 -4 -12 -9h30l12 9h258l-6 -9l8 -12h-255l199 -145h154l10 -14l12 4 l-6 10h40q50 12 108 13v132h-243l-8 12q3 4 6 9h245v281h15v-281h241q3 -4 6 -9l-8 -12h-239v-132q59 -1 110 -13h34q-3 -4 -5 -8q7 -2 14 -5l9 13h153q-12 -8 -23 -17h-129q39 -16 73 -40l-33 -24l11 -14l37 27q15 -12 28 -26l-48 -24l16 -13l46 22q4 -5 8 -9l-51 -19h36 l-26 -9h-1zM1428 834l23 -26l17 -17l13 -15l7 -16l15 -23l7 -21l12 -35l14 14l22 16l16 2l-48 61l-23 19l-22 15l-37 15zM1177 280l7 -11h32q4 6 8 11h-47zM1166 294l8 -10l101 73q3 4 5 8l10 4v1l6 2l-6 -2v9l1 1h5v8l-42 -31l-74 -25l-29 -14l1 -1l97 37q-9 -6 -17 -13 l48 24l2 2q4 2 8 3v0l-8 -3l8 12v1h1q3 4 5 8l-116 -56l-29 -10q-4 3 -8 7l8 -12h1l7 -10l73 34zM994 420l12 -34l36 -64l18 -22l27 -24l34 -25l30 -15l26 -9l-18 17l-21 15l-29 36l-21 22l-38 73l-5 23l-10 25l-10 -11l-10 -7h-21zM977 475q0 -30 24 -30q26 0 26 27 q0 29 -24 29q-5 0 -11 -2q-15 -12 -15 -24zM1591 762h6l18 7q4 -6 8 -11l892 298l-1219 413l-112 -55l-169 -57h-12l-19 -6q-6 -2 -12 -5h10l-97 -33l-654 -248h50l737 281h27l-575 -281h40l571 281h45l-388 -281h30l383 281h63l-188 -281h19l182 281h63v11h-56l56 86v5l6 4 l9 -14v-81h-15v86l6 9l9 -7v-7l52 -81h-52v-11h60l181 -281h21l-189 281h63l385 -281h31l-390 281h44l572 -281h42l-577 281h26l736 -281h52l-649 246l727 -246h33v-9v-12h-42l-432 -145h11l-29 -17h-33l-299 -101l270 101h-46l-267 -101q5 -6 8 -11zM1597 762h14l-29 -11 h-15q15 5 30 11zM2467 1056l-36 -12h-77l32 12l-24 9h78q14 -5 27 -9zM2143 1056l-18 9h185l24 -9l-32 -12h-184zM2101 1056q-12 -6 -25 -12h-223q8 6 17 12q-6 4 -13 9h226zM1371 1415l118 -58h-37zM1318 1436l108 -79h-55zM1838 1056l-17 -12h-256l8 12l-6 9h259 q6 -5 12 -9zM1456 1391l89 -34h-19zM1318 680l48 71h-13l-48 -73v-8q6 5 13 10zM1463 712l-167 -65l172 58q-3 3 -5 7zM1368 -379l-56 -27l5 7l99 71h24zM1296 -418q4 -1 7 -2q-4 -5 -7 -10l109 52l149 50h16l29 11h-12l115 38l225 84h27l51 17h-32l397 148h79l18 6l-33 11 h-77l29 -11h-52q-14 6 -29 11h-185q11 -6 23 -11h-42q-11 6 -22 11h-224l15 -11l-8 -6h227l-306 -148h-131l210 148h-32l-206 -148h28q-12 -8 -24 -17h120l-252 -122h-40l172 122h-28l-169 -122h25l-16 -11h34l-106 -51l-24 -17l-33 -12q1 1 1 2q-4 -2 -7 -4v-1q-4 -2 -9 -3 l9 3zM1450 -356l59 28h16zM1305 -417q3 4 5 8l29 9l-43 -30l-14 21l8 -3v0q-4 2 -9 3l-1 3q5 -2 10 -5v1q-8 6 -15 11l-48 71h12l51 -77v77h15v-72l-9 -14l9 6v-2q-4 -2 -9 -4zM1317 -399l49 71h50q8 6 15 11h-58l83 122h144q12 8 24 17h-156l101 148h261l8 6q-8 6 -15 11 h-257q4 -6 7 -11h-21l-7 11h-240v-17h243l-97 -148h-146v-17h135l-80 -122h-55v-11h47l-47 -72v-8q6 5 12 9zM1305 280v-11h58l-8 11h-50zM1290 280h-54l-7 -11h61v11zM1446 280l16 -11h43q-11 6 -22 11h-37zM1422 280h-53q4 -6 7 -11h61q-7 5 -15 11zM1518 280l23 -11h25 q-14 6 -29 11h-19zM1290 673l-51 78h-13l48 -71l16 -12v5zM1020 -24l7 11h-256l-15 -11h-30q8 6 15 11h-227l-22 -11l12 -6h230l208 -148h-133l36 -17h121l171 -122h-41q11 -6 23 -11h34l73 -52l54 -26l-5 7l-98 71h50q-4 6 -8 11h-57l-169 122h143l-11 17h-156l-205 148 h260zM1039 -24l4 -6h247v17h-244zM1218 762h14l-79 120h-16zM1374 762l81 120h-17l-78 -120h14zM1232 -317l7 -11h51v11h-58zM1232 -317h-13l-83 122h16zM1305 -317h-15v122h15v-122zM1554 -317h-22l254 122h93zM1221 1357h-55l108 79zM980 269q-1 1 -2 3q-4 -1 -8 -3h10z M1616 269h8q-3 1 -7 2q0 -1 -1 -2zM1598 790l188 92h-42l-160 -77v-1zM1556 831l72 51h-31l-56 -40q8 -5 15 -11zM1053 840q35 25 75 42h-132zM1141 1357h-38l120 59zM1628 882q12 8 23 17h127l-34 -17h-116zM1786 882l35 17h97l-45 -17h-87zM1919 882l45 17h35l-51 -17h-29 zM1126 899h16l-95 145h-19zM1467 899l98 145h-21l-95 -145h18zM1651 899l202 145h-32l-201 -145h31zM1821 899l297 145h-42l-298 -145h43zM1964 899l390 145h-52l-384 -145h46zM1140 -178q6 -8 12 -17h138v17h-150zM1140 -178h-15l-101 148h19zM1305 -178h-15v148h15v-148z M1924 -178h-102l308 148h188zM1067 1357h-20l92 35q-36 -17 -72 -35zM814 899l-297 145h-40l299 -145h38zM849 882h-38l187 -91l12 12zM1222 700l-104 51h-37l57 -27l108 -41zM1279 672l2 -2q5 -2 9 -4v1q-5 2 -11 5zM807 -195h38l251 -122h-35zM807 -195l-35 17h-105 l-394 148h191l-12 6l22 11h-188l-29 -11h-50l29 11h-80l-32 -11l18 -6h81l397 -148h-33l51 -17h28l231 -86l108 -36h-12l29 -11h16l150 -50l-43 21l-78 29h17l-23 11h-23l-325 122h94zM772 -178l-308 148h40l305 -148h-37zM1084 -328h35l107 -52l23 -16l-104 39zM1067 269h2 l-19 11l-29 -11h29q5 2 10 5zM978 766l-96 36l-238 80h-36l-27 17h12l-433 145h-48l859 -288q3 5 7 10zM1249 -396q3 -2 5 -4l28 -9h-1q-16 7 -32 13zM1183 702l113 -55l-44 32zM1296 660h-6v6l-9 3l15 -22v13zM110 1045q1 0 2 -1h-2v1zM1296 -430l-108 52l66 -22z"/>
<glyph glyph-name="Aacute" horiz-adv-x="5749" unicode="Á" d="M3877 1070v364h1515v-364h-1515zM3877 -23h1136v364h-1136v364h1515v-1095h-1515v367zM1983 1070v364h1514v-364h-1514zM1983 -390v1095h1514v-1095h-377v731h-759v-731h-378zM88 1070v364h1515v-364h-1515zM88 -390v1095h381v-728h1134v-367h-1515z"/>
<glyph glyph-name="Acircumflex" horiz-adv-x="2245" unicode="Â" d="M1581 1203h22l6 81l14 -70q0 -11 13 -11q7 0 11 15l16 68l2 -83h23l-5 83q-1 23 -20 23q-20 0 -22 -18l-5 -54h-3l-8 49q-4 23 -18 23q-21 0 -22 -25zM1479 1237q0 -34 41 -34q36 0 36 34v72h-27v-72q0 -14 -9 -14q-15 0 -15 14v72h-26v-72zM1457 911v66q22 0 22 -33 t-22 -33zM1438 893h13q48 0 48 51t-44 51h-17v-102zM1429 1203h26v106h-26v-106zM1355 893h38v24h-21v22h21v16h-21v22h21v18h-38v-102zM1333 591q10 -7 18 -7q26 0 26 36q0 8 -10 23l-12 18q0 11 6 11l14 -4v16q-6 4 -16 4q-26 0 -26 -27q0 -13 13 -27l13 -14 q0 -14 -11 -14q-5 0 -15 8v-23zM1328 1203h23v68q0 13 10 13q11 0 11 -11q0 -7 -15 -7v-23q16 0 16 -6v-34h26v34q0 17 -22 17q21 4 21 25v4q0 26 -37 26q-33 0 -33 -41v-65zM1255 944q0 -51 45 -51q6 0 9 3v21q-2 -6 -9 -6q-22 0 -22 33t22 33q6 0 9 -4v22h-12 q-42 0 -42 -51zM1226 586h18l4 46v8q0 7 1 18v12l13 -84h16l11 84v-38l5 -46h20l-11 102h-25l-2 -36q-5 -27 -6 -32q0 10 -3 32l-5 36h-25zM1219 1254q0 29 29 29q30 0 30 -29q0 -27 -30 -27q-29 0 -29 27zM1194 1259q0 -56 54 -56q52 0 52 56q0 50 -52 50q-54 0 -54 -50z M1162 586h42v21h-24v23h20v22h-20v18h24v18h-42v-102zM1152 893h23v42q0 20 -6 34q6 -11 7 -18l22 -58h20v102h-20v-40q0 -13 2 -36q-6 16 -6 23l-18 53h-24v-102zM1113 1283h17v-80h30v80h16v26h-63v-26zM1088 670h13v-84h21v84h16v18h-50v-18zM1076 928l11 45l3 -45h-14z M1051 893h21l2 18h18l3 -18h25l-28 102h-18zM1022 661q0 -9 14 -27l11 -14q0 -14 -9 -14q-5 0 -14 8v-23q9 -7 16 -7q30 0 30 36q0 5 -13 23l-13 18q0 11 7 11q7 -2 18 -4v16q-11 4 -23 4q-24 0 -24 -27zM1017 1237q0 -34 34 -34q39 0 39 34v72h-21v-72q0 -14 -18 -14 q-11 0 -11 14v72h-23v-72zM955 995l27 -102h21l25 102h-20l-12 -44q-6 -22 -6 -32q0 10 -4 32l-8 44h-23zM944 688l24 -56v-46h18v46l24 56h-20l-8 -18q-1 -12 -4 -18q-2 13 -6 18l-5 18h-23zM920 1203h24v68q0 13 11 13q13 0 13 -13q0 -10 -16 -10v-24h4q36 0 36 34 q0 38 -36 38t-36 -41v-65zM885 591q12 -7 21 -7q28 0 28 36q0 5 -14 23l-14 18q0 11 13 11q3 -2 10 -4v16q-9 4 -16 4q-28 0 -28 -27q0 -11 16 -27l14 -14q0 -14 -11 -14q-7 0 -19 8v-23zM882 911v66q24 0 24 -33t-24 -33zM864 893h15q14 0 19 3q28 10 28 48q0 51 -46 51 h-16v-102zM791 1203h19l6 81l16 -70q0 -11 8 -11q11 0 14 15l13 68l7 -83h24l-10 83q0 23 -18 23q-17 0 -20 -18l-10 -54l-4 49q-2 23 -20 23q-17 0 -19 -25zM791 928l4 45q2 -22 7 -45h-11zM761 893h22l1 18h22l3 -18h22l-25 102h-22zM711 756h840l-119 -234h-600z M689 1254q0 29 28 29q24 0 24 -29q0 -27 -24 -27q-28 0 -28 27zM663 1259q0 -56 54 -56q48 0 48 56q0 50 -48 50q-54 0 -54 -50zM575 1254q0 -51 50 -51h16v24h-12q-26 0 -26 27q0 29 26 29h12v26h-16q-50 0 -50 -55zM551 1059h1159l-117 -230h-922zM392 1368h1476 l-117 -229h-1242zM1135 -93l267 527h-9q-87 -171 -169 -309q-18 -30 -44 -30q-24 0 -28 38t-4 63q0 48 14 48h2q16 -9 30 -19l-59 189v-507zM1135 -93l-268 527v11h535v-11h-9h-518q74 -140 171 -309q24 -30 42 -30q24 0 29 38q6 48 6 75q0 36 -11 36h-4q-3 -1 -7 -1 l-27 -18l61 189v-507zM2080 1513h-1907l962 -1841l955 1841h-10zM2080 1560h76l-1018 -1982l-1036 1982h1978z"/>
<glyph glyph-name="Atilde" horiz-adv-x="2361" unicode="Ã" d="M1155 -444l1080 1962h-33q-291 -520 -689 -1155q-85 -100 -170 -100q-92 0 -112 131q-24 155 -24 264q0 151 53 151h8q5 0 126 -67l-239 708v-1894zM1155 -444l-1075 1962h-3v5v32h2161v-32h-33q-1 -2 -3 -5h-2089q285 -520 682 -1155q93 -100 174 -100q92 0 109 131 q23 174 23 271q0 144 -46 144h-11q-7 0 -22 -9q-93 -56 -111 -58l244 708v-1894zM2235 1518l3 5v-5h-3z"/>
<glyph glyph-name="Adieresis" horiz-adv-x="1440" unicode="Ä" d="M811 1889q0 50 37.5 86t87.5 36t87.5 -36t37.5 -86q0 -53 -36 -89t-89 -36q-51 0 -88 37t-37 88zM449 563h547l-275 625zM381 1889q0 51 36 86.5t87 35.5t88 -35.5t37 -86.5q0 -52 -36.5 -88.5t-88.5 -36.5q-51 0 -87 37t-36 88zM-17 0l738 1612l739 -1612h-208l-177 387 h-706l-176 -387h-210z"/>
<glyph glyph-name="Aring" horiz-adv-x="1440" unicode="Å" d="M629 1909q0 -40 28 -68t68 -28q37 0 63.5 29t26.5 67t-26 65t-64 27q-39 0 -67.5 -26.5t-28.5 -65.5zM537 1909q0 76 55.5 129t132.5 53q74 0 128.5 -54t54.5 -128q0 -107 -92 -163q-41 -25 -91 -25q-79 0 -133.5 54.5t-54.5 133.5zM449 563h547l-275 625zM-17 0 l738 1612l739 -1612h-208l-177 387h-706l-176 -387h-210z"/>
<glyph glyph-name="AE" horiz-adv-x="2040" unicode="Æ" d="M469 563h551l-268 596zM0 0l744 1544h676l75 -176h-630l184 -432h618l82 -176h-620l248 -584h638l76 -176h-831l-168 387h-705l-174 -387h-213z"/>
<glyph glyph-name="Ccedilla" horiz-adv-x="1352" unicode="Ç" d="M520 -316l177 279l143 -60l-211 -276zM60 793q0 255 156 454q119 151 292 240q177 90 365 90q223 0 399 -100v-225q-179 153 -412 153q-245 0 -426.5 -183t-181.5 -429q0 -280 181.5 -464.5t426.5 -184.5q221 0 412 159v-227q-191 -109 -403 -109q-160 0 -307 62 q-304 128 -437 439q-65 152 -65 325z"/>
<glyph glyph-name="Egrave" horiz-adv-x="1067" unicode="È" d="M324 2005l168 86l256 -340l-88 -55zM148 0v1544h829v-176h-637v-432h621v-176h-621v-584h637v-176h-829z"/>
<glyph glyph-name="Eacute" horiz-adv-x="1067" unicode="É" d="M344 1751l256 340l172 -86l-340 -309zM148 0v1544h829v-176h-637v-432h621v-176h-621v-584h637v-176h-829z"/>
<glyph glyph-name="Ecircumflex" horiz-adv-x="1067" unicode="Ê" d="M205 1796l328 295l327 -295l-120 -96l-207 197l-209 -197zM148 0v1544h829v-176h-637v-432h621v-176h-621v-584h637v-176h-829z"/>
<glyph glyph-name="Edieresis" horiz-adv-x="1067" unicode="Ë" d="M652 1889q0 51 36.5 86.5t87.5 35.5q52 0 87.5 -35t35.5 -87t-35.5 -88.5t-87.5 -36.5t-88 36.5t-36 88.5zM219 1889q0 50 37.5 86t87.5 36t87.5 -36t37.5 -86q0 -53 -36 -89t-89 -36q-51 0 -88 37t-37 88zM148 0v1544h829v-176h-637v-432h621v-176h-621v-584h637v-176 h-829z"/>
<glyph glyph-name="Igrave" horiz-adv-x="475" unicode="Ì" d="M144 0v1544h192v-1544h-192zM25 2005l168 86l256 -340l-88 -55z"/>
<glyph glyph-name="Iacute" horiz-adv-x="475" unicode="Í" d="M140 0v1544h192v-1544h-192zM25 1751l256 340l172 -86l-340 -309z"/>
<glyph glyph-name="Icircumflex" horiz-adv-x="475" unicode="Î" d="M140 0v1544h192v-1544h-192zM-92 1796l328 295l327 -295l-118 -96l-209 197l-207 -197z"/>
<glyph glyph-name="Idieresis" horiz-adv-x="475" unicode="Ï" d="M328 1889q0 51 37 86.5t88 35.5t87 -35.5t36 -86.5q0 -52 -35.5 -88.5t-87.5 -36.5t-88.5 36.5t-36.5 88.5zM144 0v1544h192v-1544h-192zM-105 1889q0 51 37.5 86.5t88.5 35.5t87 -35.5t36 -86.5q0 -52 -35.5 -88.5t-87.5 -36.5t-89 36.5t-37 88.5z"/>
<glyph glyph-name="Eth" horiz-adv-x="1596" unicode="Ð" d="M487 2104h149q47 -141 186 -156q180 0 234 156h147q-41 -190 -215 -256q-82 -31 -184 -31q-101 0 -203 90q-90 80 -114 197zM41 781q0 187 102 373q155 284 452 382q124 41 229 41q210 0 361.5 -69.5t291.5 -227.5l-141 -131q-191 252 -500 252q-152 0 -291 -82 q-134 -78 -220 -210q-93 -142 -93 -316l4 -12q0 -168 84 -317.5t227 -237.5q134 -82 264 -82q134 0 254.5 59.5t197.5 167.5q85 119 85 233h-404v177h613v-68q0 -314 -204 -529q-207 -219 -519 -219h-44q-10 2 -14 2q-160 0 -327 98q-140 82 -230 204q-178 242 -178 512z "/>
<glyph glyph-name="Ntilde" horiz-adv-x="1608" unicode="Ñ" d="M416 1843q92 164 227 164q53 0 79 -12l104 -48q81 -37 118 -42q13 0 21 -4q87 0 139 100l96 -80q-32 -70 -99 -119q-70 -51 -144 -51q-48 8 -94 27l-105 43q-64 26 -102 35h-19q-75 0 -125 -92zM129 0v1620l1159 -1220v1144h197v-1608l-1165 1217v-1153h-191z"/>
<glyph glyph-name="Ograve" horiz-adv-x="1696" unicode="Ò" d="M637 2001l168 88l256 -340l-88 -57zM232 772q0 -169 81.5 -311.5t225.5 -227.5t309 -85q166 0 307.5 83.5t225.5 228.5t84 312q0 168 -81 313t-224.5 230.5t-311.5 85.5q-167 0 -308 -83t-224.5 -228.5t-83.5 -317.5zM41 772q0 217 108 402t296 295q185 108 403 108 q337 0 573 -234t236 -571q0 -217 -107 -401.5t-295 -294t-407 -109.5q-217 0 -402 107t-295 295t-110 403z"/>
<glyph glyph-name="Oacute" horiz-adv-x="1696" unicode="Ó" d="M637 1751l256 340l172 -86l-340 -309zM232 772q0 -169 81.5 -311.5t225.5 -227.5t309 -85q166 0 307.5 83.5t225.5 228.5t84 312q0 168 -81 313t-224.5 230.5t-311.5 85.5q-167 0 -308 -83t-224.5 -228.5t-83.5 -317.5zM41 772q0 217 108 402t296 295q185 108 403 108 q337 0 573 -234t236 -571q0 -217 -107 -401.5t-295 -294t-407 -109.5q-217 0 -402 107t-295 295t-110 403z"/>
<glyph glyph-name="Ocircumflex" horiz-adv-x="1696" unicode="Ô" d="M520 1796l328 295l328 -295l-119 -96l-209 197l-207 -197zM232 772q0 -169 81.5 -311.5t225.5 -227.5t309 -85q166 0 307.5 83.5t225.5 228.5t84 312q0 168 -81 313t-224.5 230.5t-311.5 85.5q-167 0 -308 -83t-224.5 -228.5t-83.5 -317.5zM41 772q0 217 108 402t296 295 q185 108 403 108q337 0 573 -234t236 -571q0 -217 -107 -401.5t-295 -294t-407 -109.5q-217 0 -402 107t-295 295t-110 403z"/>
<glyph glyph-name="Otilde" horiz-adv-x="1696" unicode="Õ" d="M457 1843q92 164 227 164q54 0 80 -12l103 -48q80 -37 116 -42q13 0 21 -4q85 0 141 100l94 -80q-30 -70 -98 -119q-71 -51 -145 -51q-47 8 -93 27l-105 44q-56 24 -101 34h-21q-76 0 -123 -92zM232 772q0 -169 81.5 -311.5t225.5 -227.5t309 -85q166 0 307.5 83.5 t225.5 228.5t84 312q0 168 -81 313t-224.5 230.5t-311.5 85.5q-167 0 -308 -83t-224.5 -228.5t-83.5 -317.5zM41 772q0 217 108 402t296 295q185 108 403 108q337 0 573 -234t236 -571q0 -217 -107 -401.5t-295 -294t-407 -109.5q-217 0 -402 107t-295 295t-110 403z"/>
<glyph glyph-name="Odieresis" horiz-adv-x="1696" unicode="Ö" d="M944 1889q0 51 36 86.5t87 35.5q52 0 88.5 -35t36.5 -87q0 -53 -36 -89t-89 -36q-51 0 -87 37t-36 88zM512 1889q0 52 36.5 87t88.5 35q51 0 87 -35.5t36 -86.5q0 -52 -35.5 -88.5t-87.5 -36.5t-88.5 36.5t-36.5 88.5zM232 772q0 -169 81.5 -311.5t225.5 -227.5t309 -85 q166 0 307.5 83.5t225.5 228.5t84 312q0 168 -81 313t-224.5 230.5t-311.5 85.5q-167 0 -308 -83t-224.5 -228.5t-83.5 -317.5zM41 772q0 217 108 402t296 295q185 108 403 108q337 0 573 -234t236 -571q0 -217 -107 -401.5t-295 -294t-407 -109.5q-217 0 -402 107t-295 295 t-110 403z"/>
<glyph glyph-name="multiply" horiz-adv-x="2364" unicode="×"/>
<glyph glyph-name="Oslash" horiz-adv-x="1696" unicode="Ø" d="M457 289q173 -141 391 -141q166 0 307.5 83.5t225.5 228.5t84 312q0 209 -134 387zM232 772q0 -224 133 -403l887 878q-169 154 -404 154q-167 0 -308 -83t-224.5 -228.5t-83.5 -317.5zM29 43l199 201q-187 205 -187 528q0 217 108 402t296 295q185 108 403 108 q301 0 537 -205l202 207l84 -84l-206 -207q192 -226 192 -516q0 -217 -107 -401.5t-295 -294t-407 -109.5q-293 0 -532 193l-203 -203z"/>
<glyph glyph-name="Ugrave" horiz-adv-x="1372" unicode="Ù" d="M453 2005l168 86l256 -340l-88 -55zM121 553v991h191v-944q0 -198 84 -317q97 -135 288 -135q377 0 377 469v927h191v-981q0 -260 -153 -426q-157 -170 -415 -170q-170 0 -300 79q-135 82 -203 233q-60 134 -60 274z"/>
<glyph glyph-name="Uacute" horiz-adv-x="1372" unicode="Ú" d="M471 1751l256 340l172 -86l-340 -309zM121 553v991h191v-944q0 -198 84 -317q97 -135 288 -135q377 0 377 469v927h191v-981q0 -260 -153 -426q-157 -170 -415 -170q-170 0 -300 79q-135 82 -203 233q-60 134 -60 274z"/>
<glyph glyph-name="Ucircumflex" horiz-adv-x="1372" unicode="Û" d="M361 1796l327 295l328 -295l-119 -96l-209 197l-209 -197zM125 553v991h191v-944q0 -200 83 -317q96 -135 289 -135q377 0 377 469v927h191v-981q0 -260 -153 -426q-157 -170 -415 -170q-170 0 -300 79q-135 82 -203 233q-60 134 -60 274z"/>
<glyph glyph-name="Udieresis" horiz-adv-x="1372" unicode="Ü" d="M781 1889q0 51 35.5 86.5t86.5 35.5q53 0 89 -34.5t36 -87.5q0 -54 -35.5 -89.5t-89.5 -35.5q-52 0 -87 36.5t-35 88.5zM348 1889q0 51 36 86.5t87 35.5q52 0 88.5 -35t36.5 -87q0 -53 -36 -89t-89 -36q-51 0 -87 37t-36 88zM125 553v991h191v-944q0 -200 83 -317 q96 -135 289 -135q377 0 377 469v927h191v-981q0 -260 -153 -426q-157 -170 -415 -170q-170 0 -300 79q-135 82 -203 233q-60 134 -60 274z"/>
<glyph glyph-name="Yacute" horiz-adv-x="475" unicode="Ý" d="M140 0v1544h192v-1544h-192zM137 1943q0 42 34 73.5t76 31.5q46 0 77 -33t31 -79t-33 -76t-79 -30t-76 33t-30 80z"/>
<glyph glyph-name="Thorn" horiz-adv-x="1100" unicode="Þ" d="M399 -316l177 279l143 -60l-211 -276zM68 400l192 41q0 -92 47 -163q86 -130 252 -130q111 0 191.5 73t89.5 183l4 51q1 10 1 20q0 100 -83 165q-72 56 -216 118q-170 73 -224 105q-187 111 -187 329q0 147 121 262q132 125 336 125q260 0 395 -235l-151 -92 q-87 149 -252 149q-146 0 -222 -114q-34 -51 -34 -99q0 -147 151 -205l176 -68q269 -104 341 -274q41 -97 41 -196q0 -146 -82 -262.5t-219 -174.5q-96 -41 -187 -41q-257 0 -399 207q-69 100 -82 226z"/>
<glyph glyph-name="germandbls" horiz-adv-x="1188" unicode="ß" d="M56 793v172h84v328q0 234 102 366q114 146 342 146q266 0 394 -228q59 -105 59 -229q0 -211 -193 -328q180 -54 273 -269q44 -102 44 -216v-38q-2 -10 -2 -13q0 -128 -90 -260q-85 -126 -203 -188q-131 -69 -290 -69v173q103 0 199 55q202 115 202 334q0 134 -76 231 q-74 94 -204 132q-55 16 -121 16v180q157 0 241 135q39 63 39 141q0 111 -83 189q-81 75 -193 75q-256 0 -256 -389v-1239h-184v793h-84z"/>
<glyph glyph-name="agrave" horiz-adv-x="1141" unicode="à" d="M361 1415l168 88l256 -339l-88 -56zM236 484q0 -214 154 -311q70 -44 143 -44q150 0 237 107q82 99 82 252q0 140 -82 236q-87 100 -225 100q-168 0 -262 -156q-47 -78 -47 -184zM51 484q0 313 236 444q106 59 225 59q52 0 114 -20q142 -46 218 -174v168h184v-961h-184 v156q-134 -189 -332 -189q-105 0 -187 39q-135 64 -207 197q-67 124 -67 281z"/>
<glyph glyph-name="aacute" horiz-adv-x="1141" unicode="á" d="M357 1164l256 339l172 -88l-340 -307zM236 484q0 -214 154 -311q70 -44 143 -44q150 0 237 107q82 99 82 252q0 140 -82 236q-87 100 -225 100q-168 0 -262 -156q-47 -78 -47 -184zM51 484q0 313 236 444q106 59 225 59q52 0 114 -20q142 -46 218 -174v168h184v-961h-184 v156q-134 -189 -332 -189q-105 0 -187 39q-135 64 -207 197q-67 124 -67 281z"/>
<glyph glyph-name="acircumflex" horiz-adv-x="1141" unicode="â" d="M240 1209l328 294l329 -294l-121 -97l-208 197l-207 -197zM236 484q0 -214 154 -311q70 -44 143 -44q150 0 237 107q82 99 82 252q0 140 -82 236q-87 100 -225 100q-168 0 -262 -156q-47 -78 -47 -184zM51 484q0 313 236 444q106 59 225 59q52 0 114 -20 q142 -46 218 -174v168h184v-961h-184v156q-134 -189 -332 -189q-105 0 -187 39q-135 64 -207 197q-67 124 -67 281z"/>
<glyph glyph-name="atilde" horiz-adv-x="1141" unicode="ã" d="M236 484q0 -214 154 -311q70 -44 143 -44q150 0 237 107q82 99 82 252q0 140 -82 236q-87 100 -225 100q-168 0 -262 -156q-47 -78 -47 -184zM180 1256q92 164 228 164q48 0 114 -27q18 -10 46 -23l78 -37q18 -9 63 -16q13 0 18 -4q84 0 142 98l96 -80q-34 -71 -99 -118 q-70 -49 -145 -49q-51 7 -77 18l-106 44q-77 32 -118 42h-20q-75 0 -123 -92zM51 484q0 313 236 444q106 59 225 59q52 0 114 -20q142 -46 218 -174v168h184v-961h-184v156q-134 -189 -332 -189q-105 0 -187 39q-135 64 -207 197q-67 124 -67 281z"/>
<glyph glyph-name="adieresis" horiz-adv-x="1141" unicode="ä" d="M664 1301q0 49 38 86t87 37t86 -37t37 -86q0 -52 -35.5 -88.5t-87.5 -36.5t-88.5 36.5t-36.5 88.5zM236 484q0 -214 154 -311q70 -44 143 -44q150 0 237 107q82 99 82 252q0 140 -82 236q-87 100 -225 100q-168 0 -262 -156q-47 -78 -47 -184zM232 1301q0 49 38 86t87 37 q51 0 86.5 -36t35.5 -87q0 -52 -35 -88.5t-87 -36.5t-88.5 36.5t-36.5 88.5zM51 484q0 313 236 444q106 59 225 59q52 0 114 -20q142 -46 218 -174v168h184v-961h-184v156q-134 -189 -332 -189q-105 0 -187 39q-135 64 -207 197q-67 124 -67 281z"/>
<glyph glyph-name="aring" horiz-adv-x="1141" unicode="å" d="M475 1321q0 -39 29 -67.5t68 -28.5q37 0 64.5 29.5t27.5 66.5t-27.5 63.5t-64.5 26.5q-40 0 -68.5 -25.5t-28.5 -64.5zM385 1321q0 103 94 157q43 25 93 25q74 0 129 -54t55 -128q0 -78 -53.5 -133t-130.5 -55q-79 0 -133 54.5t-54 133.5zM236 484q0 -214 154 -311 q70 -44 143 -44q150 0 237 107q82 99 82 252q0 140 -82 236q-87 100 -225 100q-168 0 -262 -156q-47 -78 -47 -184zM51 484q0 313 236 444q106 59 225 59q52 0 114 -20q142 -46 218 -174v168h184v-961h-184v156q-134 -189 -332 -189q-105 0 -187 39q-135 64 -207 197 q-67 124 -67 281z"/>
<glyph glyph-name="ae" horiz-adv-x="1653" unicode="æ" d="M903 588h541q-21 156 -149 214q-57 26 -119 26q-102 0 -177.5 -69t-95.5 -171zM223 293q0 -77 82 -124q70 -40 152 -40l6 1l5 1q130 0 200 78q33 37 33 84q0 76 -90 121q-73 35 -158 35q-81 0 -146 -38q-76 -44 -84 -118zM47 273q4 11 4 20q0 84 59 167q100 140 306 140 q185 0 293 -84l2 41q1 12 1 24q0 162 -116 220q-69 27 -172 27q-106 0 -231 -31v164q117 22 256 22q278 0 360 -155q126 159 359 159q258 0 382 -203q74 -121 74 -335h-735q0 -139 84.5 -228.5t222.5 -89.5q168 0 273 189l155 -92q-155 -261 -436 -261q-221 0 -377 177 q-127 -177 -366 -177q-223 0 -340 143q-58 71 -58 163z"/>
<glyph glyph-name="ccedilla" horiz-adv-x="903" unicode="ç" d="M289 -316l180 279l144 -60l-217 -276zM51 469q0 141 69 259.5t192 187.5q120 67 260 67q149 0 260 -59v-240q-110 131 -283 131q-126 0 -219.5 -100t-93.5 -227q0 -195 146 -295q77 -53 173 -53q90 0 153 30q56 26 124 94v-235q-116 -58 -260 -58q-139 0 -257 62 q-121 64 -192.5 179.5t-71.5 256.5z"/>
<glyph glyph-name="egrave" horiz-adv-x="1000" unicode="è" d="M293 1415l168 88l256 -339l-88 -56zM248 588h537q-15 106 -81 171q-70 69 -175 69q-112 0 -187 -64.5t-94 -175.5zM51 516q0 88 38 185q70 179 235 249q87 37 192 37q302 0 406 -254q45 -110 45 -211v-16l-2 -57h-725q0 -136 79 -226q84 -94 218 -94q177 0 274 191 l158 -92q-158 -261 -453 -261q-210 0 -339 152q-126 148 -126 397z"/>
<glyph glyph-name="eacute" horiz-adv-x="1000" unicode="é" d="M289 1164l256 339l172 -88l-340 -307zM248 588h537q-15 106 -81 171q-70 69 -175 69q-112 0 -187 -64.5t-94 -175.5zM51 516q0 88 38 185q70 179 235 249q87 37 192 37q302 0 406 -254q45 -110 45 -211v-16l-2 -57h-725q0 -136 79 -226q84 -94 218 -94q177 0 274 191 l158 -92q-158 -261 -453 -261q-210 0 -339 152q-126 148 -126 397z"/>
<glyph glyph-name="ecircumflex" horiz-adv-x="1000" unicode="ê" d="M248 588h537q-15 106 -81 171q-70 69 -175 69q-112 0 -187 -64.5t-94 -175.5zM172 1209l328 294l328 -294l-119 -97l-209 197l-207 -197zM51 516q0 88 38 185q70 179 235 249q87 37 192 37q302 0 406 -254q45 -110 45 -211v-16l-2 -57h-725q0 -136 79 -226 q84 -94 218 -94q177 0 274 191l158 -92q-158 -261 -453 -261q-210 0 -339 152q-126 148 -126 397z"/>
<glyph glyph-name="edieresis" horiz-adv-x="1000" unicode="ë" d="M588 1301q0 50 37.5 86.5t87.5 36.5q51 0 87 -36t36 -87q0 -53 -35 -89t-88 -36q-52 0 -88.5 36.5t-36.5 88.5zM248 588h537q-15 106 -81 171q-70 69 -175 69q-112 0 -187 -64.5t-94 -175.5zM156 1301q0 49 38 86t87 37t86 -37t37 -86q0 -52 -35.5 -88.5t-87.5 -36.5 t-88.5 36.5t-36.5 88.5zM51 516q0 88 38 185q70 179 235 249q87 37 192 37q302 0 406 -254q45 -110 45 -211v-16l-2 -57h-725q0 -136 79 -226q84 -94 218 -94q177 0 274 191l158 -92q-158 -261 -453 -261q-210 0 -339 152q-126 148 -126 397z"/>
<glyph glyph-name="igrave" horiz-adv-x="520" unicode="ì" d="M168 0v961h185v-961h-185zM47 1415l168 88l256 -339l-86 -56z"/>
<glyph glyph-name="iacute" horiz-adv-x="520" unicode="í" d="M168 0v961h185v-961h-185zM43 1164l256 339l172 -88l-340 -307z"/>
<glyph glyph-name="icircumflex" horiz-adv-x="520" unicode="î" d="M168 0v961h185v-961h-185zM-68 1209l328 294l328 -294l-119 -97l-209 197l-209 -197z"/>
<glyph glyph-name="idieresis" horiz-adv-x="520" unicode="ï" d="M353 1301q0 49 36.5 86t85.5 37q51 0 88 -36t37 -87q0 -54 -35.5 -89.5t-89.5 -35.5q-52 0 -87 36.5t-35 88.5zM168 0v961h185v-961h-185zM-80 1301q0 49 37 86t86 37q51 0 88 -36t37 -87q0 -53 -36 -89t-89 -36q-51 0 -87 37t-36 88z"/>
<glyph glyph-name="eth" horiz-adv-x="1137" unicode="ð" d="M236 492q0 -119 50 -210q56 -102 161 -137q42 -14 90 -14q191 0 275 168q40 80 40 189q0 215 -166 300q-70 36 -137 36q-193 0 -275 -169q-38 -78 -38 -163zM194 1474h149q47 -141 186 -156q180 0 234 156h147q-41 -190 -215 -256q-82 -31 -184 -31q-101 0 -203 90 q-90 80 -114 197zM51 500q0 182 115 327q127 160 330 160q222 0 344 -198v172h184v-961q0 -422 -244 -512q-100 -37 -217 -37q-287 0 -408 207q-58 99 -58 225h184q0 -268 299 -268q260 0 260 317v224l-41 -62q-51 -77 -148 -108q-59 -19 -151 -19q-274 0 -392 255 q-57 123 -57 278z"/>
<glyph glyph-name="ntilde" horiz-adv-x="1071" unicode="ñ" d="M144 1256q93 164 229 164q59 0 156 -48l77 -38q18 -9 66 -17q12 0 20 -4q85 0 140 98l96 -80q-30 -71 -99 -119t-145 -48q-46 6 -78 19l-106 43q-87 35 -115 42h-20q-74 0 -125 -92zM129 0v961h183v-137q106 163 297 163q335 0 335 -411v-576h-184v580q0 123 -43 179 q-49 65 -168 65q-237 0 -237 -299v-525h-183z"/>
<glyph glyph-name="ograve" horiz-adv-x="1104" unicode="ò" d="M344 1415l168 88l256 -339l-88 -56zM223 475q0 -190 165 -286q77 -45 165 -45q135 0 231.5 97.5t96.5 233.5q0 192 -164 291q-74 45 -164 45q-188 0 -285 -167q-45 -78 -45 -169zM41 475q0 139 68 256.5t189 187.5q118 68 255 68q138 0 255.5 -67t187 -186t69.5 -259 q0 -136 -68.5 -253t-186.5 -186t-257 -69q-136 0 -255 68.5t-188 186t-69 253.5z"/>
<glyph glyph-name="oacute" horiz-adv-x="1104" unicode="ó" d="M340 1159l256 340l172 -88l-340 -307zM223 475q0 -190 165 -286q77 -45 165 -45q135 0 231.5 97.5t96.5 233.5q0 192 -164 291q-74 45 -164 45q-188 0 -285 -167q-45 -78 -45 -169zM41 475q0 139 68 256.5t189 187.5q118 68 255 68q138 0 255.5 -67t187 -186t69.5 -259 q0 -136 -68.5 -253t-186.5 -186t-257 -69q-136 0 -255 68.5t-188 186t-69 253.5z"/>
<glyph glyph-name="ocircumflex" horiz-adv-x="1104" unicode="ô" d="M223 1209l330 294l328 -294l-121 -97l-207 197l-209 -197zM223 475q0 -190 165 -286q77 -45 165 -45q135 0 231.5 97.5t96.5 233.5q0 192 -164 291q-74 45 -164 45q-188 0 -285 -167q-45 -78 -45 -169zM41 475q0 139 68 256.5t189 187.5q118 68 255 68q138 0 255.5 -67 t187 -186t69.5 -259q0 -136 -68.5 -253t-186.5 -186t-257 -69q-136 0 -255 68.5t-188 186t-69 253.5z"/>
<glyph glyph-name="otilde" horiz-adv-x="1104" unicode="õ" d="M223 475q0 -190 165 -286q77 -45 165 -45q135 0 231.5 97.5t96.5 233.5q0 192 -164 291q-74 45 -164 45q-188 0 -285 -167q-45 -78 -45 -169zM164 1256q92 164 227 164q54 0 114 -27q12 -6 47 -23l77 -37q19 -9 63 -16q13 0 21 -4q83 0 139 98l96 -80q-32 -71 -100 -119 t-143 -48q-48 6 -77 18l-107 44q-81 33 -117 42h-19q-74 0 -125 -92zM41 475q0 139 68 256.5t189 187.5q118 68 255 68q138 0 255.5 -67t187 -186t69.5 -259q0 -136 -68.5 -253t-186.5 -186t-257 -69q-136 0 -255 68.5t-188 186t-69 253.5z"/>
<glyph glyph-name="odieresis" horiz-adv-x="1104" unicode="ö" d="M643 1301q0 49 38 86t87 37q51 0 88 -36t37 -87q0 -53 -36 -89t-89 -36q-51 0 -88 37t-37 88zM223 475q0 -190 165 -286q77 -45 165 -45q135 0 231.5 97.5t96.5 233.5q0 192 -164 291q-74 45 -164 45q-188 0 -285 -167q-45 -78 -45 -169zM213 1301q0 49 37 86t86 37 q51 0 88 -36t37 -87q0 -53 -36 -89t-89 -36q-51 0 -87 37t-36 88zM41 475q0 139 68 256.5t189 187.5q118 68 255 68q138 0 255.5 -67t187 -186t69.5 -259q0 -136 -68.5 -253t-186.5 -186t-257 -69q-136 0 -255 68.5t-188 186t-69 253.5z"/>
<glyph glyph-name="divide" horiz-adv-x="2364" unicode="÷"/>
<glyph glyph-name="oslash" horiz-adv-x="1104" unicode="ø" d="M357 209q77 -69 184 -69q88 0 168.5 48t126 125t45.5 166q0 107 -72 197zM223 471q0 -103 70 -194l455 467q-88 65 -195 65q-187 0 -282 -171q-48 -87 -48 -167zM33 17l123 127q-119 157 -119 335q0 132 71.5 252t188 188t256.5 68q186 0 328 -118l131 135l63 -64 l-131 -131q121 -155 121 -340q0 -212 -152 -359t-364 -147q-190 0 -330 121l-122 -127z"/>
<glyph glyph-name="ugrave" horiz-adv-x="1049" unicode="ù" d="M316 1415l168 88l256 -339l-88 -56zM121 391v570h182v-545q0 -116 56 -196q63 -91 174 -91q215 0 215 287v545h184v-553q0 -267 -171 -390q-90 -65 -228 -65q-242 0 -357 209q-55 100 -55 229z"/>
<glyph glyph-name="uacute" horiz-adv-x="1049" unicode="ú" d="M312 1164l256 339l172 -88l-340 -307zM121 391v570h182v-545q0 -116 56 -196q63 -91 174 -91q215 0 215 287v545h184v-553q0 -267 -171 -390q-90 -65 -228 -65q-242 0 -357 209q-55 100 -55 229z"/>
<glyph glyph-name="ucircumflex" horiz-adv-x="1049" unicode="û" d="M197 1209l328 294l327 -294l-121 -97l-206 197l-209 -197zM121 391v570h182v-545q0 -116 56 -196q63 -91 174 -91q215 0 215 287v545h184v-553q0 -267 -171 -390q-90 -65 -228 -65q-242 0 -357 209q-55 100 -55 229z"/>
<glyph glyph-name="udieresis" horiz-adv-x="1049" unicode="ü" d="M621 1297q0 49 37 86t86 37q50 0 87.5 -36.5t37.5 -86.5q0 -52 -36.5 -88.5t-88.5 -36.5t-87.5 36.5t-35.5 88.5zM189 1297q0 49 37 86t86 37q51 0 87.5 -36t36.5 -87q0 -54 -35 -89.5t-89 -35.5q-52 0 -87.5 36.5t-35.5 88.5zM121 387v570h182v-545q0 -116 56 -196 q63 -91 174 -91q215 0 215 287v545h184v-553q0 -268 -171 -391q-89 -64 -228 -64q-243 0 -357 208q-55 100 -55 230z"/>
<glyph glyph-name="yacute" horiz-adv-x="520" unicode="ý" d="M168 0v961h185v-961h-185zM131 1405q0 50 39.5 86.5t89.5 36.5q54 0 90.5 -38.5t36.5 -92.5q0 -53 -39 -89t-92 -36q-55 0 -90 38.5t-35 94.5z"/>
<glyph glyph-name="thorn" horiz-adv-x="789" unicode="þ" d="M259 -299l150 237l122 -51l-180 -235zM72 180l160 76q54 -127 172 -127q51 0 92.5 32.5t52.5 82.5q0 74 -74 128q-31 23 -72 44l-71 37q-215 112 -215 260q0 62 36 129q78 145 247 145q171 0 264 -168l-152 -79q-42 84 -125 84q-43 0 -70.5 -28t-27.5 -71q0 -57 86 -99 l161 -79q199 -98 199 -270q0 -168 -157 -265q-73 -45 -158 -45q-262 0 -348 213z"/>
<glyph glyph-name="OE" horiz-adv-x="2341" unicode="Œ" d="M232 760q0 -232 171 -417q180 -195 445 -195q279 0 454 200q163 187 163 412q0 173 -74 317q-78 152 -220.5 238t-318.5 86q-271 0 -445.5 -184.5t-174.5 -456.5zM41 760q0 341 233.5 580t573.5 239q262 0 483 -164q98 -72 142 -147v276h807v-176h-631v-432h614v-176 h-614v-584h631v-176h-807v260q-227 -293 -617 -293q-335 0 -573 228q-242 232 -242 565z"/>
<glyph glyph-name="oe" horiz-adv-x="1835" unicode="œ" d="M1084 588h536q-30 240 -297 240q-94 -10 -159 -79q-62 -65 -80 -161zM228 496q0 -184 136 -288q67 -51 156 -60q150 0 252 85q109 91 109 238q0 187 -154 291q-73 49 -168 49q-135 0 -232 -89q-99 -92 -99 -226zM41 449q0 256 170 408q146 130 314 130q129 0 247.5 -57 t192.5 -158q141 215 407 215q294 0 395 -274q42 -114 42 -225v-39h-734q15 -137 84 -221q79 -97 209 -97q89 0 166.5 53t114.5 136l160 -92q-80 -155 -262 -227q-86 -34 -175 -34q-280 0 -407 213q-91 -140 -266 -193q-79 -24 -146 -24q-277 0 -433 240q-79 121 -79 246z "/>
<glyph glyph-name="circumflex" horiz-adv-x="965" unicode="ˆ" d="M152 1209l327 294l330 -294l-121 -97l-209 197l-206 -197z"/>
<glyph glyph-name="tilde" horiz-adv-x="1045" unicode="˜" d="M131 1256q95 164 230 164q55 0 156 -48l78 -37q23 -11 65 -18q12 0 20 -4q87 0 139 98l97 -80q-33 -72 -99 -118q-69 -49 -145 -49q-47 6 -79 19l-105 43q-78 32 -115 42h-20q-75 0 -125 -92z"/>
<glyph glyph-name="uni2002" horiz-adv-x="1052" unicode=" "/>
<glyph glyph-name="uni2003" horiz-adv-x="2104" unicode=" "/>
<glyph glyph-name="uni2009" horiz-adv-x="420" unicode=" "/>
<glyph glyph-name="endash" horiz-adv-x="1024" unicode="–" d="M0 580v155h1024v-155h-1024z"/>
<glyph glyph-name="emdash" horiz-adv-x="2048" unicode="—" d="M0 580v151h2048v-151h-2048z"/>
<glyph glyph-name="quoteleft" horiz-adv-x="568" unicode="‘" d="M125 1032l271 545l112 -45l-223 -563z"/>
<glyph glyph-name="quotesinglbase" horiz-adv-x="2364" unicode="‚"/>
<glyph glyph-name="quotedblleft" horiz-adv-x="899" unicode="“" d="M465 1032l270 545l113 -49l-223 -563zM125 1032l266 545l117 -45l-223 -563z"/>
<glyph glyph-name="quotedblright" horiz-adv-x="899" unicode="”" d="M387 1012l230 565l159 -65l-272 -547zM47 1012l230 565l159 -65l-272 -547z"/>
<glyph glyph-name="ellipsis" horiz-adv-x="2048" unicode="…" d="M1587 88q0 47 36.5 82t84.5 35q49 0 85 -34t36 -83q0 -50 -35.5 -85.5t-85.5 -35.5q-49 0 -85 36t-36 85zM908 88q0 47 34.5 82t81.5 35q48 0 84.5 -35t36.5 -82q0 -49 -36 -85t-85 -36t-82.5 36t-33.5 85zM219 88q0 47 36.5 82t84.5 35t84.5 -35t36.5 -82q0 -49 -36 -85 t-85 -36t-85 36t-36 85z"/>
<glyph glyph-name="guilsinglleft" horiz-adv-x="688" unicode="‹" d="M43 656l373 493l117 -84l-305 -409l305 -392l-113 -84z"/>
<glyph glyph-name="guilsinglright" horiz-adv-x="688" unicode="›" d="M156 264l305 392l-305 409l113 84l374 -493l-370 -476z"/>
<glyph glyph-name="trademark" horiz-adv-x="1923" unicode="™" d="M924 684v860h217l248 -608l256 608h211v-860h-131v731l-297 -731h-80l-287 731h-4v-731h-133zM68 1415v129h700v-129h-284v-731h-131v731h-285z"/>
</font>
</defs>
</svg>
