<?xml version="1.0" encoding="UTF-8" standalone="no"?>
<!DOCTYPE svg  PUBLIC '-//W3C//DTD SVG 1.1//EN'  'http://www.w3.org/Graphics/SVG/1.1/DTD/svg11.dtd'>
<svg xmlns="http://www.w3.org/2000/svg">
<defs>
<font id="FuturaOblique-Regular" horiz-adv-x="1024">
<font-face underline-position="-183" font-weight="28926" descent="-410" panose-1="2 11 33 2 2 2 4 2 3 3" units-per-em="2048" unicode-range="U+0020-25CA" bbox="-342 -483 5726 1972" x-height="887" underline-thickness="80" font-family="FuturaOblique" ascent="1638" font-style="oblique" cap-height="1464"/>
<missing-glyph horiz-adv-x="2048"/>
<glyph glyph-name=".notdef" horiz-adv-x="2048"/>
<glyph glyph-name=".null" horiz-adv-x="0"/>
<glyph glyph-name="nonmarkingreturn" horiz-adv-x="2048"/>
<glyph glyph-name="space" horiz-adv-x="590" unicode=" "/>
<glyph glyph-name="exclam" horiz-adv-x="635" unicode="!" d="M215 63q0 43 29.5 73t72.5 30t73 -30t30 -73t-30 -72.5t-73 -29.5t-72.5 29.5t-29.5 72.5zM256 303v1194h123v-1194h-123z"/>
<glyph glyph-name="quotedbl" horiz-adv-x="551" unicode='&quot;' d="M186 1434v-553h-86v553h86zM451 1434v-553h-86v553h86z"/>
<glyph glyph-name="numbersign" horiz-adv-x="1575" unicode="#" d="M915 1454l-174 -498h271l176 498h110l-174 -498h322l-31 -90h-323l-101 -282h348l-30 -90h-351l-174 -494h-112l176 494h-270l-179 -494h-110l174 494h-334l31 90h336l100 282h-360l28 90h365l176 498h110zM979 866h-270l-99 -282h269z"/>
<glyph glyph-name="dollar" horiz-adv-x="1180" unicode="$" d="M635 -168h-80v174q-276 0 -395 268l114 58q62 -199 281 -217v633q-152 73 -227 145q-105 102 -105 237q0 143 97 232q87 80 235 102v101h80v-99q206 -24 293 -178l-105 -57q-57 112 -188 120v-505q176 -84 252 -159q108 -108 108 -267q0 -168 -97 -279.5t-263 -138.5 v-170zM635 117q114 15 175 98q58 77 58 195q0 190 -233 301v-594zM555 1352q-86 -14 -141 -72q-58 -60 -58 -145q0 -155 199 -252v469z"/>
<glyph glyph-name="percent" horiz-adv-x="1497" unicode="%" d="M270 -39l842 1518h109l-842 -1518h-109zM651 1104q0 -161 -66 -259q-77 -116 -229 -116t-228 116q-65 99 -65 259t65 259q76 116 228 116t229 -116q66 -98 66 -259zM182 1106q0 -283 174 -283q176 0 176 283q0 280 -176 280q-174 0 -174 -280zM1436 334q0 -160 -66 -258 q-77 -115 -229 -115t-228 115q-65 97 -65 258t65 259q76 116 228 116t229 -116q66 -98 66 -259zM967 336q0 -283 174 -283q176 0 176 283q0 280 -176 280q-174 0 -174 -280z"/>
<glyph glyph-name="ampersand" horiz-adv-x="1311" unicode="&amp;" d="M1145 0l-182 215q-207 -242 -447 -242q-185 0 -306 111q-124 114 -124 297q0 246 363 473l-56 74q-114 151 -114 268q0 124 101 197q90 65 218 65q125 0 205 -73q84 -76 84 -199q0 -188 -271 -357l361 -446q97 118 174 242l86 -50q-101 -165 -199 -280l252 -295h-145z M551 907l65 45q154 107 154 236q0 73 -54 122q-52 46 -126 46q-79 0 -132 -44q-57 -46 -57 -124t68 -170zM895 301l-383 467l-66 -47q-116 -83 -162 -139q-71 -86 -71 -195q0 -130 89.5 -218.5t219.5 -88.5q172 0 373 221z"/>
<glyph glyph-name="quotesingle" horiz-adv-x="285" unicode="&apos;" d="M186 1434v-553h-86v553h86z"/>
<glyph glyph-name="parenleft" horiz-adv-x="559" unicode="(" d="M512 1483q-213 -432 -213 -932q0 -544 213 -944l-90 -53q-238 444 -238 1001q0 545 238 977z"/>
<glyph glyph-name="parenright" horiz-adv-x="559" unicode=")" d="M47 1483l90 49q238 -428 238 -977q0 -557 -238 -1001l-90 53q215 404 215 944q0 496 -215 932z"/>
<glyph glyph-name="asterisk" horiz-adv-x="854" unicode="*" d="M162 928l-43 78l233 122l-233 129l43 78l227 -145l-6 274h88l-8 -274l229 143l43 -76l-233 -129l233 -122l-47 -78l-227 139l8 -266h-86l8 264z"/>
<glyph glyph-name="plus" horiz-adv-x="1706" unicode="+" d="M893 1221v-570h559v-82h-559v-569h-80v569h-559v82h559v570h80z"/>
<glyph glyph-name="comma" horiz-adv-x="590" unicode="," d="M324 254l145 -61l-264 -515l-84 39z"/>
<glyph glyph-name="period" horiz-adv-x="590" unicode="." d="M193 84q0 43 29.5 72.5t72.5 29.5t72.5 -29.5t29.5 -72.5t-29.5 -72.5t-72.5 -29.5t-72.5 29.5t-29.5 72.5z"/>
<glyph glyph-name="slash" horiz-adv-x="825" unicode="/" d="M717 1497h108l-716 -1687h-109z"/>
<glyph glyph-name="zero" horiz-adv-x="1180" unicode="0" d="M588 -39q-263 0 -390 263q-96 200 -96 495q0 298 97 497q127 263 393 263t392 -263q95 -199 95 -497q0 -302 -95 -498q-126 -260 -396 -260zM236 717q0 -238 64 -403q91 -234 292 -234q354 0 354 641q0 639 -358 639q-200 0 -290 -238q-62 -166 -62 -405z"/>
<glyph glyph-name="one" horiz-adv-x="1180" unicode="1" d="M545 0v1331h-264l63 119h330v-1450h-129z"/>
<glyph glyph-name="two" horiz-adv-x="1180" unicode="2" d="M1012 115v-115h-940l411 451q391 425 391 612q0 137 -94 219q-90 78 -229 78q-153 0 -238 -98q-80 -93 -80 -248h-131v14q0 212 125 331.5t338 119.5q198 0 321 -104q132 -110 132 -304q0 -219 -345 -602l-9 -10l-322 -344h670z"/>
<glyph glyph-name="three" horiz-adv-x="1180" unicode="3" d="M242 368q18 -288 319 -288q150 0 236 79q90 82 90 230q0 150 -91 233q-87 80 -239 80h-28q-18 -1 -27 -1v126l41 -3q14 -1 24 -1q133 0 212 64q85 70 85 200q0 126 -80 202q-79 73 -206 73q-248 0 -277 -236h-143q18 169 135 263q112 90 285 90q181 0 298 -97 q125 -105 125 -282q0 -262 -253 -340q278 -94 278 -371q0 -203 -133 -318q-126 -110 -332 -110q-205 0 -324 101q-123 105 -139 307z"/>
<glyph glyph-name="four" horiz-adv-x="1180" unicode="4" d="M721 0v371h-660l793 1128v-1014h150v-114h-150v-371h-133zM721 485v660l-461 -660h461z"/>
<glyph glyph-name="five" horiz-adv-x="1180" unicode="5" d="M350 883q114 49 217 49q208 0 335.5 -126.5t127.5 -334.5q0 -227 -134 -368q-136 -144 -361 -144q-307 0 -453 281l104 77q124 -237 355 -237q167 0 262 110q90 103 90 273q0 166 -98.5 260t-264.5 94q-187 0 -303 -106l-41 4l187 735h592v-113h-500z"/>
<glyph glyph-name="six" horiz-adv-x="1180" unicode="6" d="M391 805q116 74 234 74q194 0 312 -130q114 -125 114 -321q0 -211 -135 -340t-347 -129q-205 0 -325.5 122t-120.5 327q0 155 95 331q48 90 192 291l342 477l108 -67zM260 416q0 -153 87 -245q89 -95 241 -95q154 0 242 104q83 97 83 254q0 146 -89 239t-234 93 q-150 0 -242 -101q-88 -97 -88 -249z"/>
<glyph glyph-name="seven" horiz-adv-x="1180" unicode="7" d="M223 18l668 1319h-707v113h899l-737 -1495z"/>
<glyph glyph-name="eight" horiz-adv-x="1180" unicode="8" d="M412 788q-232 76 -232 332q0 167 125 267q115 92 287 92q180 0 292 -96q117 -102 117 -279q0 -230 -231 -316q136 -36 212 -144q73 -103 73 -247q0 -209 -128 -325q-124 -111 -335 -111q-210 0 -335 110q-132 115 -132 322q0 147 72 250q76 109 215 145zM594 842 q124 0 198 67.5t74 190.5q0 122 -75.5 192t-198.5 70t-198 -70t-75 -192t77 -192q74 -66 198 -66zM590 80q151 0 239.5 84.5t88.5 234.5q0 151 -88.5 237.5t-239.5 86.5q-152 0 -239 -86t-87 -238q0 -151 87 -235t239 -84z"/>
<glyph glyph-name="nine" horiz-adv-x="1180" unicode="9" d="M782 633q-109 -72 -231 -72q-194 0 -313 128q-115 125 -115 321q0 211 136 341q133 128 345 128q205 0 327 -122t122 -327q0 -154 -95 -331q-54 -101 -194 -291l-350 -476l-109 66zM915 1022q0 153 -88 247.5t-239 94.5q-154 0 -242 -104q-84 -97 -84 -254 q0 -146 88.5 -240t233.5 -94q150 0 242 101q89 98 89 249z"/>
<glyph glyph-name="colon" horiz-adv-x="635" unicode=":" d="M215 760q0 43 29.5 72.5t72.5 29.5t73 -29.5t30 -72.5t-30 -73t-73 -30t-72.5 30t-29.5 73zM215 84q0 43 29.5 72.5t72.5 29.5t73 -29.5t30 -72.5t-30 -72.5t-73 -29.5t-72.5 29.5t-29.5 72.5z"/>
<glyph glyph-name="semicolon" horiz-adv-x="635" unicode=";" d="M332 254l145 -61l-264 -515l-84 39zM301 760q0 43 29.5 72.5t72.5 29.5t73 -29.5t30 -72.5t-30 -73t-73 -30t-72.5 30t-29.5 73z"/>
<glyph glyph-name="less" horiz-adv-x="1706" unicode="&lt;" d="M1442 1034l-1045 -424l1045 -424v-88l-1178 482v61l1178 483v-90z"/>
<glyph glyph-name="equal" horiz-adv-x="1706" unicode="=" d="M1452 831v-79h-1198v79h1198zM1452 469v-82h-1198v82h1198z"/>
<glyph glyph-name="greater" horiz-adv-x="1706" unicode="&gt;" d="M1442 641v-61l-1178 -482v88l1045 424l-1045 424v90z"/>
<glyph glyph-name="question" horiz-adv-x="1053" unicode="?" d="M291 1096h-119v32q0 171 96 270t267 99q153 0 243 -90t90 -242q0 -126 -67 -212q-50 -63 -176 -144l-72 -45q-199 -123 -199 -232q0 -74 46.5 -116.5t121.5 -42.5q187 0 187 178v18h110v-24q0 -279 -311 -279q-122 0 -201.5 73.5t-79.5 195.5q0 100 66 179q46 55 151 124 q21 13 73 46q226 143 226 273q0 98 -58.5 155.5t-156.5 57.5q-237 0 -237 -268v-6zM401 63q0 43 30 73t73 30t72.5 -30t29.5 -73t-29.5 -72.5t-72.5 -29.5t-73 29.5t-30 72.5z"/>
<glyph glyph-name="at" horiz-adv-x="2048" unicode="@" d="M1219 467l63 254q-45 203 -233 203q-170 0 -271 -160q-88 -138 -88 -318q0 -110 53 -175q57 -70 164 -70q116 0 202 77q81 73 110 189zM1303 827l61 129h80l-137 -553q-21 -85 -21 -108q0 -92 117 -92q99 0 204.5 77t165.5 217q56 129 56 271q0 293 -222 458 q-199 148 -503 148q-338 0 -569 -192q-310 -257 -310 -672q0 -344 239 -538q221 -179 574 -179q338 0 623 193l29 -45q-292 -220 -648 -220q-376 0 -620 185q-301 228 -301 616q0 330 198 572q291 356 795 356q334 0 553 -168q260 -199 260 -504q0 -346 -244 -540 q-140 -111 -305 -111q-192 0 -192 145q0 12 3 34q1 3 1 5q-102 -184 -291 -184q-313 0 -313 326q0 213 122 371q132 173 339 173q193 0 256 -170z"/>
<glyph glyph-name="A" horiz-adv-x="1223" unicode="A" d="M-18 0l643 1522l616 -1522h-145l-187 496h-598l-194 -496h-135zM356 610h510l-250 637z"/>
<glyph glyph-name="B" horiz-adv-x="1133" unicode="B" d="M182 0v1464h254q133 0 190 -7q112 -15 177 -64q149 -112 149 -310q0 -115 -59 -196q-61 -84 -170 -111q141 -21 221 -112.5t80 -233.5q0 -205 -125 -321q-81 -75 -218 -97q-71 -12 -243 -12h-256zM315 115h170q224 0 293 53q103 79 103 235q0 185 -117 254 q-69 41 -250 41h-199v-583zM315 813h166q165 0 240 47q94 60 94 213q0 162 -89 224q-73 51 -245 51h-166v-535z"/>
<glyph glyph-name="C" horiz-adv-x="1464" unicode="C" d="M1358 1196q-213 184 -463 184q-287 0 -463 -180.5t-176 -468.5q0 -290 176 -467q179 -180 445 -180q256 0 473 170v-156q-224 -137 -467 -137q-334 0 -552 216t-218 554q0 337 219.5 551.5t550.5 214.5q281 0 477 -154z"/>
<glyph glyph-name="D" horiz-adv-x="1427" unicode="D" d="M182 0v1464h228q242 0 340 -13q196 -27 313 -120q250 -199 250 -600q0 -406 -248 -596q-117 -90 -291 -118q-103 -17 -319 -17h-273zM315 115h187q179 0 254 12q146 22 229 100q186 173 186 506q0 339 -188 506q-91 81 -249 104q-77 11 -275 11h-144v-1239z"/>
<glyph glyph-name="E" horiz-adv-x="1051" unicode="E" d="M182 0v1464h725v-125h-592v-458h592v-125h-592v-631h592v-125h-725z"/>
<glyph glyph-name="F" horiz-adv-x="1026" unicode="F" d="M182 0v1464h725v-125h-592v-458h570v-125h-570v-756h-133z"/>
<glyph glyph-name="G" horiz-adv-x="1673" unicode="G" d="M1382 1096q-181 280 -512 280q-281 0 -451 -192q-163 -184 -163 -469q0 -271 178 -453q174 -178 436 -178q242 0 396 140q159 144 163 384h-505v115h651v-16q0 -345 -185 -543q-190 -203 -532 -203q-339 0 -544 216q-201 211 -201 552q0 328 202 543q212 225 537 225 q452 0 627 -317z"/>
<glyph glyph-name="H" horiz-adv-x="1427" unicode="H" d="M182 0v1464h133v-594h797v594h133v-1464h-133v756h-797v-756h-133z"/>
<glyph glyph-name="I" horiz-adv-x="498" unicode="I" d="M182 0v1464h133v-1464h-133z"/>
<glyph glyph-name="J" horiz-adv-x="764" unicode="J" d="M467 401v1063h133v-1149q0 -354 -311 -354q-188 0 -283 152l94 86q82 -111 185 -111q116 0 157 106q25 66 25 207z"/>
<glyph glyph-name="K" horiz-adv-x="1176" unicode="K" d="M182 0v1464h133v-686l662 686h174l-694 -700l727 -764h-193l-676 743v-743h-133z"/>
<glyph glyph-name="L" horiz-adv-x="846" unicode="L" d="M182 0v1464h133v-1339h502v-125h-635z"/>
<glyph glyph-name="M" horiz-adv-x="1712" unicode="M" d="M850 -57l-514 1175l-111 -1118h-137l199 1526l561 -1303l582 1303l188 -1526h-137l-109 1118z"/>
<glyph glyph-name="N" horiz-adv-x="1526" unicode="N" d="M182 0v1526l1037 -1225v1163h124v-1507l-1036 1227v-1184h-125z"/>
<glyph glyph-name="O" horiz-adv-x="1792" unicode="O" d="M1679 729q0 -319 -229.5 -543.5t-554.5 -224.5t-553.5 225.5t-228.5 542.5q0 320 229 547q223 221 553 221q331 0 555 -221q229 -226 229 -547zM895 80q268 0 455.5 188.5t187.5 460.5q0 270 -188 461q-185 188 -455 188q-267 0 -454 -189t-187 -460q0 -270 188 -461 q185 -188 453 -188z"/>
<glyph glyph-name="P" d="M315 774h91q205 0 287 40q122 59 122 237q0 131 -76 217q-49 56 -156 72q-52 8 -177 8h-91v-574zM182 0v1464h267q260 0 362 -73q145 -104 145 -330q0 -224 -136 -321q-116 -83 -351 -83h-154v-657h-133z" unicode="P"/>
<glyph glyph-name="Q" horiz-adv-x="1792" unicode="Q" d="M1692 -102h-162l-178 206q-210 -135 -469 -135q-319 0 -541 219q-229 226 -229 543q0 319 228.5 542.5t553.5 223.5q327 0 555.5 -223.5t228.5 -542.5q0 -318 -235 -545zM926 600h164l272 -317q176 190 176 448q0 269 -188 459t-455 190q-265 0 -452 -189t-187 -460 q0 -273 187 -460t456 -187q223 0 367 121z"/>
<glyph glyph-name="R" horiz-adv-x="1081" unicode="R" d="M1071 0h-162l-514 698h-80v-698h-133v1464h269q475 0 475 -399q0 -174 -102.5 -270.5t-278.5 -96.5zM315 1348v-541h134q168 0 241 47q92 59 92 215q0 160 -89 225q-75 54 -244 54h-134z"/>
<glyph glyph-name="S" horiz-adv-x="1020" unicode="S" d="M70 246l114 61q67 -227 299 -227q142 0 220 84q75 82 75 225q0 126 -83 209q-53 53 -195 129q-181 96 -250 161q-117 109 -117 259q0 161 110 259q105 93 269 93q222 0 324 -186l-103 -62q-66 129 -229 129q-108 0 -172 -63.5t-64 -171.5q0 -154 254 -287l70 -37 q165 -91 229 -168q84 -102 84 -264q0 -198 -115 -313t-313 -115q-291 0 -407 285z"/>
<glyph glyph-name="T" horiz-adv-x="1018" unicode="T" d="M442 0v1339h-403v125h940v-125h-404v-1339h-133z"/>
<glyph glyph-name="U" horiz-adv-x="1417" unicode="U" d="M176 1464h131v-956q0 -428 402 -428q399 0 399 428v956h133v-913q0 -590 -532 -590q-533 0 -533 590v913z"/>
<glyph glyph-name="V" horiz-adv-x="1128" unicode="V" d="M555 -57l-573 1521h153l422 -1192l444 1192h146z"/>
<glyph glyph-name="W" horiz-adv-x="1839" unicode="W" d="M530 -57l-505 1521h139l366 -1169l390 1227l405 -1217l352 1159h138l-490 -1521l-405 1243z"/>
<glyph glyph-name="X" horiz-adv-x="991" unicode="X" d="M121 0h-146l447 770l-404 694h150l330 -581l333 581h144l-404 -690l445 -774h-148l-372 649z"/>
<glyph glyph-name="Y" horiz-adv-x="1118" unicode="Y" d="M496 0v674l-486 790h160l393 -671l395 671h152l-481 -790v-674h-133z"/>
<glyph glyph-name="Z" horiz-adv-x="1147" unicode="Z" d="M25 0l870 1343h-743v121h970l-866 -1341h778v-123h-1009z"/>
<glyph glyph-name="bracketleft" horiz-adv-x="559" unicode="[" d="M221 1497h291v-98h-174v-1712h174v-99h-291v1909z"/>
<glyph glyph-name="backslash" horiz-adv-x="825" unicode="\" d="M717 -190l-717 1687h109l716 -1687h-108z"/>
<glyph glyph-name="bracketright" horiz-adv-x="559" unicode="]" d="M338 1497v-1909h-291v99h176v1712h-176v98h291z"/>
<glyph glyph-name="asciicircum" horiz-adv-x="2048" unicode="^" d="M1081 1458l541 -557h-125l-473 469l-475 -469h-125l539 557h118z"/>
<glyph glyph-name="underscore" d="M1024 -403v-80h-1024v80h1024z" unicode="_"/>
<glyph glyph-name="grave" d="M645 1030h-94l-283 350h164z" unicode="`"/>
<glyph glyph-name="a" horiz-adv-x="1108" unicode="a" d="M819 0v162q-90 -201 -311 -201q-201 0 -316 141q-108 131 -108 336q0 200 104 335q114 147 308 147q232 0 323 -195v162h123v-887h-123zM221 434q0 -160 68 -253q77 -105 231 -105t233 118q68 102 68 263q0 153 -72 246q-79 104 -227 104q-152 0 -232 -115 q-69 -99 -69 -258z"/>
<glyph glyph-name="b" horiz-adv-x="1108" unicode="b" d="M287 0h-123v1550h123v-825q91 195 321 195q194 0 308 -147q104 -135 104 -335q0 -205 -108 -336q-115 -141 -316 -141q-220 0 -309 201v-162zM883 434q0 159 -69 258q-80 115 -232 115q-148 0 -227 -104q-70 -93 -70 -246q0 -161 68 -263q79 -118 233 -118q297 0 297 358 z"/>
<glyph glyph-name="c" horiz-adv-x="934" unicode="c" d="M854 725q-124 86 -276 86q-170 0 -267 -110q-94 -105 -94 -277q0 -158 101.5 -258t259.5 -100q148 0 290 100v-135q-130 -74 -313 -74q-206 0 -334.5 134t-128.5 341q0 218 135 353t353 135q162 0 276 -60z"/>
<glyph glyph-name="d" horiz-adv-x="1108" unicode="d" d="M821 0v162q-89 -201 -309 -201q-201 0 -316 141q-108 131 -108 336q0 200 104 335q114 147 308 147q230 0 321 -195v825h125v-1550h-125zM225 434q0 -160 68 -253q77 -105 231 -105q153 0 232 119q67 101 67 262q0 153 -70 246q-79 104 -227 104q-152 0 -232 -115 q-69 -99 -69 -258z"/>
<glyph glyph-name="e" horiz-adv-x="1018" unicode="e" d="M926 440h-705q5 -157 74 -255q80 -113 229 -113q197 0 295 213l113 -62q-132 -262 -408 -262q-202 0 -322 137q-114 131 -114 336q0 208 110 342q119 144 322 144q193 0 303 -132q103 -124 103 -321v-27zM780 545q-19 256 -276 256q-114 0 -188.5 -70.5t-86.5 -185.5h551 z"/>
<glyph glyph-name="f" horiz-adv-x="530" unicode="f" d="M193 0v782h-166v105h166v256q0 214 23 284q47 142 210 142q64 0 119 -21l-23 -108q-48 24 -88 24q-81 0 -106 -88q-13 -45 -13 -153v-336h195v-105h-195v-782h-122z"/>
<glyph glyph-name="g" horiz-adv-x="1108" unicode="g" d="M520 807q-150 0 -229 -113q-68 -99 -68 -256q0 -155 64 -250q74 -112 221 -112q153 0 237 113q76 101 76 260q0 157 -71 252q-79 106 -230 106zM944 887v-733q0 -317 -41 -404q-93 -196 -381 -196q-353 0 -395 276h154q30 -166 251 -166q237 0 278 185q9 44 9 135v180 q-88 -203 -319 -203q-199 0 -310 143q-100 130 -100 336q0 205 104 337q113 143 312 143q103 0 187 -52q88 -54 126 -147v166h125z"/>
<glyph glyph-name="h" horiz-adv-x="1067" unicode="h" d="M164 0v1550h117v-800q108 170 313 170q151 0 235 -83.5t84 -234.5v-602h-125v547q0 262 -227 262q-274 0 -274 -346v-463h-123z"/>
<glyph glyph-name="i" horiz-adv-x="471" unicode="i" d="M172 0v887h127v-887h-127zM141 1233q0 39 28 66.5t67 27.5t67.5 -27.5t28.5 -66.5q0 -41 -27.5 -67.5t-68.5 -26.5q-40 0 -67.5 27t-27.5 67z"/>
<glyph glyph-name="j" horiz-adv-x="471" unicode="j" d="M172 -446v1333h127v-1333h-127zM141 1233q0 39 28 66.5t67 27.5t67.5 -27.5t28.5 -66.5q0 -41 -27.5 -67.5t-68.5 -26.5q-40 0 -67.5 27t-27.5 67z"/>
<glyph glyph-name="k" horiz-adv-x="938" unicode="k" d="M164 0v1550h123v-1056l442 393h170l-475 -398l510 -489h-170l-477 459v-459h-123z"/>
<glyph glyph-name="l" horiz-adv-x="471" unicode="l" d="M299 0h-127v1550h127v-1550z"/>
<glyph glyph-name="m" horiz-adv-x="1616" unicode="m" d="M287 0h-123v887h123v-139q90 172 282 172q196 0 271 -175q105 175 309 175q145 0 225 -89q78 -85 78 -231v-600h-123v551q0 262 -213 262q-246 0 -246 -346v-467h-122v551q0 262 -209 262q-252 0 -252 -346v-467z"/>
<glyph glyph-name="n" horiz-adv-x="1067" unicode="n" d="M164 0v887h117v-137q108 170 313 170q151 0 235 -83.5t84 -234.5v-602h-125v547q0 262 -227 262q-274 0 -274 -346v-463h-123z"/>
<glyph glyph-name="o" horiz-adv-x="1143" unicode="o" d="M567 -39q-193 0 -340 145q-137 135 -137 336q0 199 139.5 338.5t337.5 139.5q202 0 344 -140t142 -338q0 -197 -140 -336q-146 -145 -346 -145zM571 76q150 0 251 108q98 105 98 256q0 152 -99 258.5t-250 106.5t-249.5 -106.5t-98.5 -258.5q0 -151 98 -256 q100 -108 250 -108z"/>
<glyph glyph-name="p" horiz-adv-x="1108" unicode="p" d="M164 -446v1333h119v-166q106 199 317 199q199 0 312 -144q104 -131 104 -336t-101 -335q-111 -144 -309 -144q-217 0 -323 203v-610h-119zM883 438q0 157 -67 255q-78 114 -228 114q-151 0 -231 -106q-72 -95 -72 -252q0 -158 77 -260q85 -113 238 -113q147 0 221 112 q62 95 62 250z"/>
<glyph glyph-name="q" horiz-adv-x="1108" unicode="q" d="M944 -446h-119v610q-106 -203 -325 -203q-198 0 -309 144q-101 130 -101 335t104 337q113 143 312 143q214 0 319 -199v166h119v-1333zM520 807q-150 0 -229 -113q-68 -99 -68 -256q0 -155 64 -250q74 -112 221 -112q153 0 237 113q76 101 76 260q0 157 -71 252 q-79 106 -230 106z"/>
<glyph glyph-name="r" horiz-adv-x="645" unicode="r" d="M287 709q125 211 286 211q50 0 105 -19l-40 -116q-47 14 -83 14q-127 0 -203 -123q-65 -105 -65 -240v-436h-123v887h123v-178z"/>
<glyph glyph-name="s" horiz-adv-x="782" unicode="s" d="M63 158l117 67q58 -149 219 -149q73 0 119 35q51 39 51 110q0 102 -181 173q-11 5 -30 12q-118 47 -171 91q-81 67 -81 167q0 119 85 191q81 67 202 67q222 0 295 -181l-113 -63q-43 129 -190 129q-61 0 -102 -35q-45 -37 -45 -96q0 -70 75 -115q33 -20 136 -55 q127 -44 179 -94q68 -65 68 -183q0 -132 -98 -204q-87 -64 -223 -64q-237 0 -312 197z"/>
<glyph glyph-name="t" horiz-adv-x="508" unicode="t" d="M190 782h-163v105h163v364h121v-364h178v-105h-178v-782h-121v782z"/>
<glyph glyph-name="u" horiz-adv-x="1079" unicode="u" d="M287 887v-443q0 -175 40 -255q57 -113 212 -113q154 0 212 114q42 81 42 254v443h122v-506q0 -420 -374 -420q-377 0 -377 420v506h123z"/>
<glyph glyph-name="v" horiz-adv-x="874" unicode="v" d="M31 887h135l272 -672l271 672h137l-408 -944z"/>
<glyph glyph-name="w" horiz-adv-x="1327" unicode="w" d="M379 -57l-354 944h129l231 -639l279 686l278 -686l232 639h129l-355 -944l-282 706z"/>
<glyph glyph-name="x" horiz-adv-x="807" unicode="x" d="M31 887h153l217 -326l217 326h150l-299 -426l330 -461h-152l-248 358l-245 -358h-154l332 461z"/>
<glyph glyph-name="y" horiz-adv-x="825" unicode="y" d="M43 887h131l254 -694l234 694h131l-459 -1333h-127l155 452z"/>
<glyph glyph-name="z" horiz-adv-x="780" unicode="z" d="M23 0l495 776h-461v111h674l-491 -776h505v-111h-722z"/>
<glyph glyph-name="braceleft" d="M848 1389h-37q-143 0 -189 -62q-40 -53 -40 -203v-241q0 -151 -30 -220q-41 -97 -165 -133q124 -36 166 -132q29 -68 29 -220v-241q0 -150 39 -202q46 -61 188 -61h39v-88h-43q-200 0 -268 89q-58 76 -58 286v240q0 151 -53 215q-58 71 -205 71q-8 0 -22.5 -1t-22.5 -1 v90q20 -2 49 -2q145 0 203 72q51 65 51 215v240q0 211 58 287q68 90 268 90h43v-88z" unicode="{"/>
<glyph glyph-name="bar" d="M557 1565v-2048h-90v2048h90z" unicode="|"/>
<glyph glyph-name="braceright" d="M545 1100v-240q0 -151 53 -216q58 -71 205 -71q8 0 22.5 1t22.5 1v-90q-8 0 -22.5 1t-22.5 1q-147 0 -205 -71q-53 -64 -53 -215v-240q0 -210 -58 -286q-68 -89 -268 -89h-43v88h39q142 0 188 61q39 52 39 202v241q0 151 30 220q43 96 167 132q-125 36 -167 132 q-30 69 -30 221v241q0 150 -40 203q-46 62 -189 62h-37v88h43q200 0 268 -90q58 -76 58 -287z" unicode="}"/>
<glyph glyph-name="asciitilde" horiz-adv-x="1706" unicode="~" d="M1530 647q-211 -147 -387 -147q-99 0 -266 61l-22 8q-9 3 -33 12q-166 60 -257 60q-161 0 -387 -160v92q207 146 387 146q102 0 271 -61q15 -6 46 -17q168 -61 261 -61q160 0 387 159v-92z"/>
<glyph glyph-name="nonbreakingspace" horiz-adv-x="1180" unicode=" "/>
<glyph glyph-name="exclamdown" horiz-adv-x="635" unicode="¡" d="M215 1395q0 43 29.5 72.5t72.5 29.5t73 -29.5t30 -72.5t-30 -73t-73 -30t-72.5 30t-29.5 73zM256 1157h123v-1157h-123v1157z"/>
<glyph glyph-name="cent" horiz-adv-x="1180" unicode="¢" d="M930 1028q-124 80 -282 86l-1 -745q191 21 283 96v-131q-111 -68 -282 -72l-1 -205h-80v207q-198 11 -321 142t-123 329q0 203 122 333q119 128 322 153v161h80v-159q135 0 283 -60v-135zM567 1110q-139 -14 -226 -117.5t-87 -244.5q0 -152 81 -251q83 -102 232 -122v735 z"/>
<glyph glyph-name="sterling" horiz-adv-x="1180" unicode="£" d="M100 20q71 134 195 170q80 111 80 205q0 84 -45 205h-230v90h185q-103 214 -103 371q0 191 131 307q125 111 318 111q203 0 319 -112.5t123 -315.5l-127 -22q-3 152 -80 240q-82 93 -231 93q-143 0 -229 -79q-89 -82 -89 -224q0 -129 101 -369h389v-90h-358 q38 -105 38 -176q0 -142 -101 -229q80 -2 223 -59q140 -56 194 -56q120 0 211 143l88 -59q-107 -201 -291 -201q-77 0 -217.5 60.5t-198.5 60.5q-116 0 -209 -125z"/>
<glyph glyph-name="currency" horiz-adv-x="1241" unicode="¤" d="M358 1204q117 94 263 94q144 0 264 -94l205 207l59 -59l-207 -205q92 -119 92 -262q0 -146 -92 -262l207 -205l-59 -60l-205 207q-119 -92 -264 -92t-263 92l-206 -207l-58 60l207 205q-92 117 -92 262q0 143 92 262l-207 205l58 59zM954 887q0 138 -96.5 234t-234.5 96 t-235 -96t-97 -234q0 -139 96.5 -235.5t235.5 -96.5q138 0 234.5 97t96.5 235z"/>
<glyph glyph-name="yen" horiz-adv-x="1182" unicode="¥" d="M530 0v631h-497v98h456l-98 162h-358v100h293l-283 461h147l402 -676l412 676h135l-281 -461h289v-100h-352l-99 -162h451v-98h-490v-631h-127z"/>
<glyph glyph-name="brokenbar" d="M557 1432v-758h-90v758h90zM557 408v-758h-90v758h90z" unicode="¦"/>
<glyph glyph-name="section" horiz-adv-x="1042" unicode="§" d="M176 -92l127 -1q6 -233 227 -233q103 0 162.5 55.5t59.5 157.5q0 101 -83 160q-44 32 -175 80q-105 39 -136 52q-84 36 -125 73q-118 106 -118 278q0 126 75 220q72 90 195 129q-219 90 -219 297q0 156 110 243q101 80 261 80q348 0 348 -334v-20h-135q-10 246 -222 246 q-95 0 -158 -56.5t-63 -150.5q0 -106 81 -170q51 -40 179 -86q178 -64 257 -135q110 -99 110 -258q0 -274 -264 -357q217 -94 217 -305q0 -148 -105 -240q-99 -88 -250 -88q-161 0 -257 89q-99 91 -99 251v23zM526 254q115 0 195 80.5t80 195.5q0 123 -76 199t-199 76 q-116 0 -196 -79.5t-80 -195.5q0 -126 75 -201t201 -75z"/>
<glyph glyph-name="dieresis" d="M240 1188q0 40 28 69t68 29t69 -29t29 -69q0 -42 -28 -69t-70 -27q-96 0 -96 96zM590 1188q0 40 29 69t69 29t68 -29t28 -69q0 -96 -96 -96q-42 0 -70 27t-28 69z" unicode="¨"/>
<glyph glyph-name="copyright" horiz-adv-x="1706" unicode="©" d="M852 1452q305 0 520 -215q104 -104 157.5 -236t53.5 -280q0 -304 -211 -512q-222 -219 -520 -219q-297 0 -513 216t-216 515q0 218 124.5 406t324.5 271q131 54 280 54zM1511 721q0 274 -190 465q-193 194 -469 194q-274 0 -461 -190q-196 -199 -196 -469 q0 -269 194.5 -463.5t462.5 -194.5q197 0 366.5 113t244.5 294q48 117 48 251zM1081 918q-42 172 -227 172q-142 0 -211 -121q-55 -96 -55 -250q0 -149 58 -246q70 -119 208 -119q91 0 156 52t84 141h102q-12 -131 -116 -208q-97 -71 -232 -71q-187 0 -288 139 q-89 124 -89 318q0 192 96 316q106 135 293 135q125 0 215 -66q97 -71 111 -192h-105z"/>
<glyph glyph-name="ordfeminine" horiz-adv-x="831" unicode="ª" d="M614 844v112q-69 -139 -233 -139q-147 0 -234 94q-84 91 -84 240q0 144 82 238q86 98 228 98q174 0 241 -135v112h93v-620h-93zM166 1147q0 -250 225 -250q112 0 171 79q54 71 54 187q0 111 -56 177q-60 69 -169 69q-111 0 -171 -78q-54 -70 -54 -184z"/>
<glyph glyph-name="guillemotleft" horiz-adv-x="782" unicode="«" d="M297 49l-252 387l244 395l86 -53l-209 -344l213 -332zM655 49l-254 387l246 395l86 -53l-211 -344l215 -332z"/>
<glyph glyph-name="logicalnot" horiz-adv-x="1706" unicode="¬" d="M1452 856v-502h-78v420h-1120v82h1198z"/>
<glyph glyph-name="sfthyphen" horiz-adv-x="711" unicode="­" d="M137 506h436v-129h-436v129z"/>
<glyph glyph-name="registered" horiz-adv-x="1706" unicode="®" d="M852 1452q305 0 520 -215q104 -104 157.5 -236t53.5 -280q0 -304 -211 -512q-222 -219 -520 -219q-297 0 -513 216t-216 515q0 218 124.5 406t324.5 271q131 54 280 54zM1511 721q0 274 -190 465q-193 194 -469 194q-274 0 -461 -190q-196 -199 -196 -469 q0 -269 194.5 -463.5t462.5 -194.5q197 0 366.5 113t244.5 294q48 117 48 251zM874 1155q349 0 349 -233q0 -91 -56 -150t-147 -70l190 -393h-131l-182 377h-213v-377h-115v846h305zM852 1077h-168v-313h168q122 0 174 23q80 35 80 139q0 151 -254 151z"/>
<glyph glyph-name="degree" horiz-adv-x="674" unicode="°" d="M338 1450q113 0 192.5 -80.5t79.5 -193.5q0 -115 -79.5 -194t-194.5 -79q-116 0 -194.5 78.5t-78.5 194.5q0 115 80 194.5t195 79.5zM551 1176q0 88 -62.5 150.5t-150.5 62.5q-90 0 -151.5 -61.5t-61.5 -151.5q0 -89 62 -151t151 -62t151 62t62 151z"/>
<glyph glyph-name="plusminus" horiz-adv-x="1706" unicode="±" d="M893 1161v-354h559v-80h-559v-352h-80v352h-559v80h559v354h80zM1452 141v-82h-1198v82h1198z"/>
<glyph glyph-name="twosuperior" horiz-adv-x="778" unicode="²" d="M668 645v-70h-621l209 207l60 60q262 259 262 370q0 85 -66 134q-59 45 -147 45q-98 0 -154.5 -54.5t-56.5 -152.5h-86v8q0 132 88 204q82 66 217 66q124 0 206 -58q93 -66 93 -185q0 -153 -221 -357l-13 -12l-213 -205h443z"/>
<glyph glyph-name="threesuperior" horiz-adv-x="778" unicode="³" d="M160 797q12 -174 211 -174q95 0 152 45q63 49 63 141q0 93 -63 143q-58 45 -154 45h-19q-12 -1 -18 -1v75q7 0 21.5 -1t21.5 -1q196 0 196 160q0 79 -57 123q-52 41 -133 41q-163 0 -182 -141l-95 -1q12 104 94 161q73 50 183 50q115 0 193 -55q88 -61 88 -172 q0 -156 -168 -203q184 -59 184 -223q0 -126 -93 -195q-83 -61 -214 -61q-286 0 -305 244h94z"/>
<glyph glyph-name="acute" d="M379 1030l213 350h164l-283 -350h-94z" unicode="´"/>
<glyph glyph-name="mu" horiz-adv-x="1094" unicode="µ" d="M326 1063l-123 -590q-17 -82 -17 -141q0 -258 234 -258q263 0 356 422l125 567h121l-166 -786q-1 -7 -5 -24q-20 -93 -20 -112q0 -63 68 -63q17 0 39 2l-18 -96q-3 -1 -8 -2q-49 -11 -68 -11q-133 0 -133 127q0 18 4 45q-89 -172 -312 -172q-206 0 -274 172l-119 -567 h-121l316 1487h121z"/>
<glyph glyph-name="mu" horiz-adv-x="1094" unicode="μ" d="M326 1063l-123 -590q-17 -82 -17 -141q0 -258 234 -258q263 0 356 422l125 567h121l-166 -786q-1 -7 -5 -24q-20 -93 -20 -112q0 -63 68 -63q17 0 39 2l-18 -96q-3 -1 -8 -2q-49 -11 -68 -11q-133 0 -133 127q0 18 4 45q-89 -172 -312 -172q-206 0 -274 172l-119 -567 h-121l316 1487h121z"/>
<glyph glyph-name="paragraph" d="M932 1415h-129v-1415h-70v1415h-192v-1415h-70v782q-165 8 -268 94q-113 94 -113 254q0 166 117 261q109 88 278 88h447v-64z" unicode="¶"/>
<glyph glyph-name="cedilla" d="M301 -379v70q162 -33 225 -33q125 0 125 88q0 90 -141 90q-7 0 -20.5 -1t-20.5 -1v166h61v-100h15q213 0 213 -152q0 -164 -215 -164q-98 0 -242 37z" unicode="¸"/>
<glyph glyph-name="onesuperior" horiz-adv-x="778" unicode="¹" d="M360 575v799h-174l41 72h217v-871h-84z"/>
<glyph glyph-name="ordmasculine" horiz-adv-x="858" unicode="º" d="M426 817q-147 0 -256 101q-102 94 -102 235q0 146 108 242q104 92 250 92q154 0 258 -96q107 -99 107 -238q0 -144 -113 -242q-107 -94 -252 -94zM428 897q110 0 186 73.5t76 182.5t-76 181.5t-186 72.5q-109 0 -184.5 -72.5t-75.5 -181.5t75.5 -182.5t184.5 -73.5z"/>
<glyph glyph-name="guillemotright" horiz-adv-x="782" unicode="»" d="M485 49l-84 53l215 332l-208 344l86 53l243 -395zM127 49l-82 53l215 332l-211 344l86 53l244 -395z"/>
<glyph glyph-name="onequarter" horiz-adv-x="1829" unicode="¼" d="M344 633v745h-168l41 66h207v-811h-80zM401 -39l918 1518h106l-915 -1518h-109zM1540 0v207h-416l500 633v-568h94v-65h-94v-207h-84zM1540 272v369l-291 -369h291z"/>
<glyph glyph-name="onehalf" horiz-adv-x="1829" unicode="½" d="M344 633v745h-168l41 66h207v-811h-80zM401 -39l918 1518h106l-915 -1518h-109zM1722 63v-63h-592l199 195q15 14 53 50q254 243 254 351q0 79 -64 125q-57 41 -140 41q-92 0 -145.5 -51.5t-53.5 -143.5h-82v8q0 125 85 191q77 61 206 61q119 0 196 -53q88 -61 88 -174 q0 -121 -218 -339l-5 -5l-203 -193h422z"/>
<glyph glyph-name="threequarters" horiz-adv-x="1829" unicode="¾" d="M152 840q12 -162 202 -162q89 0 144 41q61 45 61 131q0 176 -209 176h-35v70q7 0 21.5 -1t21.5 -1q187 0 187 147q0 75 -54 116q-49 38 -126 38q-158 0 -175 -131h-89q9 98 89 150q71 46 175 46q108 0 182 -50q84 -58 84 -161q0 -148 -160 -190q176 -52 176 -209 q0 -118 -90 -183q-80 -57 -203 -57q-270 0 -293 230h91zM401 -39l918 1518h106l-915 -1518h-109zM1540 0v207h-416l500 633v-568h94v-65h-94v-207h-84zM1540 272v369l-291 -369h291z"/>
<glyph glyph-name="questiondown" horiz-adv-x="1053" unicode="¿" d="M750 365h118v-33q0 -170 -96 -270.5t-266 -100.5q-153 0 -243.5 90.5t-90.5 243.5q0 126 67 212q49 62 177 144q21 14 74 47q198 122 198 230q0 74 -47.5 116.5t-122.5 42.5q-186 0 -186 -178v-18h-111v24q0 279 311 279q122 0 201 -72q80 -75 80 -196q0 -101 -65 -179 q-45 -53 -152 -124q-20 -14 -72 -47q-227 -143 -227 -273q0 -98 58.5 -155.5t156.5 -57.5q238 0 238 268v7zM639 1395q0 -43 -29.5 -73t-72.5 -30q-44 0 -72.5 29.5t-28.5 73.5q0 43 29 72.5t72 29.5t72.5 -29.5t29.5 -72.5z"/>
<glyph glyph-name="Agrave" horiz-adv-x="2845" unicode="À" d="M1067 532q-6 0 -12 -2q-17 -12 -17 -24q0 -33 27 -33t27 31q0 28 -25 28zM1657 758l16 2l-51 63l-25 21l-22 16l-39 17l-18 10l24 -27l19 -18l14 -17l6 -16l16 -25l9 -22l12 -37l14 14zM1079 446h-22l12 -34l39 -70l18 -23l29 -24l37 -27l31 -16l28 -10l-18 18l-23 16 l-32 37l-23 25l-39 78l-6 24l-10 27l-10 -12zM1632 831l19 -14l53 26l8 -10l-59 -22h40l-30 -10l8 -13l59 20q66 -101 66 -257q0 -155 -68 -256l945 -320l-1297 -432l-17 25q5 -2 11 -4v-4l6 -2l9 -2q0 1 1 2v7q3 1 7 3v1l40 14l28 20l102 49h40l-48 -23l62 23h31l36 12h-35 l346 129h52l-214 -80l240 80h32l31 19h-5l474 157h25v6v13h-45l-788 266l704 -266h-53l-739 282q-5 -7 -11 -13l552 -269h-44l-520 256q-16 -15 -33 -29l318 -227h-35l-297 217q-41 -29 -92 -45l115 -172h-19l-110 167q-66 -20 -147 -20v152h62l-8 12h-54v83l-10 15l-6 -9 v-89h-57l-8 -12h65v-152q-82 1 -149 22l-109 -169h-20l115 173q-49 17 -88 45l-298 -218h-31l315 228q-17 12 -33 28l-3 3l-521 -259h-41l551 271q-6 6 -11 13l-741 -284h-53l785 296h-1l-868 -296h-49l909 308q-68 101 -68 255t65 255l350 -118l-295 111h-20l-17 12h6 l-16 6l2 4l-113 38l-210 79h-27l-53 18h32l-409 154h-83l-42 14h-14h-35q18 -6 35 -12v12h-35l1294 439l-341 -129q-3 -1 -5 -2h1l-107 -40l-766 -259h85l-24 -9h53l24 9h203l-18 -9l29 -14h-201l408 -154h109l37 -18h-99l281 -106l10 12l69 -33h39l-96 47q1 2 3 3 q14 14 30 26l-70 51h-127l-37 18h139l-214 154h-240l-29 14l18 9h244l-12 -9h31l12 9h274l-6 -9l9 -14h-270l212 -154h162l8 -12q7 2 14 5q-2 4 -4 7h31q57 14 125 15v139h-257l-9 14l6 9h260v299h16v-299h259l6 -9h20l-6 9h277l12 -9q-10 -7 -19 -14h-273l-105 -154h166 q-12 -9 -25 -18h-127q39 -16 73 -39l-40 -29l12 -14l43 31q15 -12 29 -26l2 -2zM1681 -348l31 12h-11q-16 -6 -33 -12h13zM1239 313l8 -10l107 78q3 4 5 8q5 3 11 5v-1l6 4v9h-5l5 8l-45 -33l-92 -33l-16 -8q1 -1 1 -2l104 40l-19 -13l50 24l2 2l9 4v-1q3 1 6 3v9v8 l-137 -66l-16 -6q-4 3 -8 7l8 -11h1q4 -5 9 -10l76 37zM1251 299l9 -12h31l8 12h-48zM1386 971q70 -1 129 -15h25l102 154h-256v-139zM1026 806q4 6 8 11l-111 42l-237 79h-41l-27 18h15l-460 154h-49zM1370 709l-10 4l16 -25l-49 35l-76 26l125 -61v14h-6v7zM1370 709v1 q-7 3 -13 6l2 -3q5 -2 11 -4zM1202 773l119 -45q-13 9 -26 19l-107 52h-40zM1055 844l12 14l-164 80h-40zM1370 711v5l-54 83h-15l50 -74q10 -7 19 -14zM1114 898q34 24 74 40h-129zM924 1392l-681 -259h53l786 299h27l-610 -299h41l608 299h48l-412 -299h31l408 299h66 l-200 -299h21l193 299h67v12h-59l59 91v5l6 4l10 -15v-85h-16v91l6 9q5 -4 10 -7v-8l55 -85h-55v-12h63l196 -299h20l-201 299h66l412 -299h34l-417 299h45l610 -299h45l-614 299h26l787 -299h53l-682 259l767 -259h34v-9v-14h-49l-457 -154h12l-31 -18h-35l-333 -112 l300 112h-48l-277 -105l10 -12q-15 -5 -29 -10h4q12 5 25 9l8 -12l943 316l-1297 439l-124 -61l-172 -58h-13l-32 -10l-4 -2h13zM866 956l-315 154h-41l316 -154h40zM1203 1478l-70 -34h-20zM1386 703v-1h-1zM1295 1504l-83 -60h-39zM117 1112q3 -1 7 -2h-7v2zM1351 1526 l-54 -82h-57zM2203 1110h-233l19 14l-13 9h238l18 -9zM2203 1110l-315 -154h46l314 154h-45zM1851 938h-121l25 18h133zM1851 938l-161 -79q8 -8 14 -16l194 95h-47zM2248 1110q14 7 29 14q-9 4 -18 9h199q12 -4 24 -9q-19 -7 -37 -14h-197zM1898 938l36 18h103l-48 -18h-91 zM1935 1110l-212 -154h32l215 154h-35zM1698 938l-54 -39q8 -6 15 -12l71 51h-32zM1455 745l-25 -18l-37 -14v0l33 11l-50 -36l133 64q21 7 41 14q3 -4 5 -8l4 2l-13 10l-116 -43q-2 -2 -4 -3l83 28q19 9 37 18l-10 14zM2445 1110l-408 -154h48l413 154h-53zM2498 1110 q19 7 37 14l-24 9h85q13 -4 27 -9l-42 -14h-83zM2037 938l48 18h39l-54 -18h-33zM1697 811h15l-31 -12h-16zM1456 1444l-55 82l113 -82h-58zM1542 1444l-82 59l120 -59h-38zM1620 1444l-67 33l86 -33h-19zM1386 135h-6h-10v-147h-258l-8 -13l4 -6h262v-157h-159 q6 -10 13 -19h146v-129h-61l8 -12h53v-81l6 -9l-6 4v-1q3 -1 6 -3l-6 2v0l6 -2l10 3v1q4 1 7 3l2 2l66 32l70 49h32l24 12h-39l183 129h124l39 19h-136l222 157h240l12 6l-26 13h-235l18 -13h-35l-18 13h-274q4 -6 9 -13h-20q-4 6 -8 13h-257v147zM1370 -429v-5l-19 14 l-49 72h15zM1359 -432v0l-39 15q3 -2 6 -5zM920 -287l149 -49h-17l32 -12h21l145 -48l-49 23l-66 25h15l-25 12h-22l-344 129h99l-39 19h-111l-420 157h205l-12 6l26 13h-201l-34 -13h-53l34 13h-84l-38 -13l18 -6h86l421 -157h-34l58 -19h26zM920 -287l132 -49h-8l17 -12 h23l292 -109l-1294 432l35 12v-12v-6h32l473 -157h-4l27 -19h35zM1370 -436q-6 2 -11 4q-1 1 -2 3q7 -3 13 -6v-1zM1357 -429l-6 9l-100 72h51l-8 12h-60l-178 129h150q-6 10 -12 19h-165l-218 157h276l-4 6l9 13h-271l-18 -13h-31l18 13h-242l-26 -13l12 -6h246l220 -157 h-141l39 -19h128l181 -129h-42q12 -6 25 -12h34l70 -50zM1201 -373l-51 25h40l104 -50l26 -19zM1250 -396l76 -26l50 -35zM1370 395q-4 -2 -9 -3l9 13v-10zM1386 -348h50l-50 -75v75zM1125 -336l-267 129h40l267 -129h-40zM1386 -336v129h144l-86 -129h-58zM1309 -336h-15 l-88 129h18zM1092 1110l104 -154h18l-101 154h-21zM1208 938l85 -127h15l-83 127h-17zM1048 288l-2 -1v0q1 1 2 1zM819 -188l-326 157h41l325 -157h-40zM1386 -188v157h261l-105 -157h-156zM1211 -188h-17l-107 157h21zM1560 -188l107 157h279l-220 -157h-166zM1547 -207 h152l-180 -129h-60zM1450 -348h52l-101 -72zM117 -13l3 1h-3v-1zM2220 -31h44l-327 -157h-43zM1855 -207h42l-269 -129h-41zM2264 -31h202l16 6q-17 6 -34 13h-198l27 -13q-7 -3 -13 -6zM1937 -188l-40 -19h98l50 19h-108zM1628 -336q-13 -6 -25 -12h14l32 12h-21zM2466 -31 h53l-421 -157h-53zM2519 -31h86l18 6q-19 6 -38 13h-84l34 -13zM2098 -188l-51 -19h26q29 10 58 19h-33zM1370 299v-12h16v12h-16zM1723 288v-1h3q-2 1 -3 1zM1114 287l12 6l9 -6h2l-21 12l-31 -12h29zM1035 287l-1 1q-2 -1 -4 -1h5zM1461 287h66q-8 6 -17 12h-57zM1553 287 h46l-24 12h-38zM1637 287h27l-31 12h-21q13 -6 25 -12z"/>
<glyph glyph-name="Aacute" horiz-adv-x="6042" unicode="Á" d="M4119 750h1607v-1164h-1607v389h1206v387h-1206v388zM2105 750h1608v-1164h-399v776h-805v-776h-404v1164zM92 750h406v-775h1206v-389h-1612v1164zM4119 1524h1607v-387h-1607v387zM2105 1524h1608v-387h-1608v387zM92 1524h1612v-387h-1612v387z"/>
<glyph glyph-name="Acircumflex" horiz-adv-x="2245" unicode="Â" d="M866 444h537v-10h-10q-105 -204 -168 -309q-19 -31 -45 -31q-23 0 -27 39q-4 41 -4 66q0 45 12 45h2q17 -8 31 -19l-59 189v-506l268 526h-10h-519q74 -139 173 -309q22 -31 40 -31q24 0 29 39q7 49 7 76q0 35 -11 35h-10l-29 -19l62 189v-506l-269 526v10zM1333 592 q10 -8 19 -8q24 0 24 37q0 8 -10 22l-10 19q0 10 6 10l12 -4v16q-6 4 -14 4q-27 0 -27 -26q0 -15 13 -27l14 -14q0 -15 -12 -15q-5 0 -15 8v-22zM1227 586h16l4 47v8q0 6 2 16v13l13 -84h16l10 84v-37l6 -47h21l-12 102h-25l-2 -37q-4 -26 -6 -30q0 18 -2 30l-6 37h-25z M1161 586h43v20h-24v25h20v20h-20v19h24v18h-43v-102zM1102 586h20v84h17v18h-52v-18h15v-84zM1024 592q8 -8 16 -8q29 0 29 37q-3 8 -12 22l-13 19q0 10 7 10q8 -2 18 -4v16q-10 4 -22 4q-25 0 -25 -26q0 -7 14 -27l11 -14q0 -15 -9 -15q-6 0 -14 8v-22zM969 586h16v47 l25 55h-21l-8 -18q0 -13 -2 -19q-2 15 -6 19l-6 18h-23l25 -55v-47zM885 592q12 -8 20 -8q29 0 29 37q0 4 -14 22l-15 19q0 10 15 10q2 -2 10 -4v16q-10 4 -17 4q-28 0 -28 -26q0 -11 16 -27l14 -14q0 -15 -12 -15q-6 0 -18 8v-22zM1438 893h12q49 0 49 51t-45 51h-16v-102z M1456 911v66q23 0 23 -33t-23 -33zM1356 893h37v25h-21v20h21v16h-21v23h21v18h-37v-102zM1309 897v21q-2 -7 -9 -7q-22 0 -22 33t22 33q7 0 9 -4v22h-13q-41 0 -41 -51t45 -51q7 0 9 4zM1153 893h23v43q0 18 -7 33q7 -11 7 -19l22 -57h21v102h-21v-41q0 -12 2 -34 q-6 16 -6 22l-18 53h-23v-102zM1051 893h20l2 18h19l4 -18h24l-28 102h-19zM1075 928l12 45l3 -45h-15zM981 893h23l24 102h-20l-13 -45q-6 -22 -6 -30l-10 75h-25zM864 893h15q14 0 18 4q29 8 29 47q0 51 -45 51h-17v-102zM883 911v66q22 0 22 -33t-22 -33zM762 893h20 l2 18h23l2 -18h22l-24 102h-23zM791 928l4 45q2 -23 8 -45h-12zM1604 1202l6 82l12 -70q0 -12 14 -12q7 0 11 17l16 67l2 -84h23l-5 84q-1 23 -20 23q-21 0 -23 -19l-4 -53h-4l-8 49q-4 23 -16 23q-22 0 -23 -25l-4 -82h23zM1505 1309h-26v-72q0 -35 41 -35q36 0 36 35v72 h-26v-72q0 -14 -10 -14q-15 0 -15 14v72zM1454 1309h-24v-107h24v107zM1376 1253q23 4 23 27v2q0 27 -37 27q-35 0 -35 -41v-66h25v70q0 12 10 12t10 -10q0 -8 -14 -8v-23q14 0 14 -6v-35h27v35q0 16 -23 16zM1247 1309q-53 0 -53 -49q0 -58 53 -58t53 58q0 49 -53 49z M1247 1282q31 0 31 -29q0 -26 -31 -26q-28 0 -28 26q0 29 28 29zM1112 1309v-27h18v-80h29v80h17v27h-64zM1040 1309h-22v-72q0 -35 33 -35q39 0 39 35v72h-21v-72q0 -14 -18 -14q-11 0 -11 14v72zM944 1202v70q0 12 10 12q15 0 15 -12q0 -10 -17 -10v-25h4q35 0 35 35 q0 37 -35 37q-36 0 -36 -41v-66h24zM811 1202l4 82l16 -70q0 -12 9 -12q11 0 14 17l12 67l8 -84h23l-8 84q0 23 -19 23q-17 0 -20 -19l-10 -53l-4 49q-2 23 -21 23q-16 0 -18 -25l-6 -82h20zM717 1309q-53 0 -53 -49q0 -58 53 -58q49 0 49 58q0 49 -49 49zM717 1282 q24 0 24 -29q0 -26 -24 -26q-29 0 -29 26q0 29 29 29zM641 1282v27h-16q-50 0 -50 -56q0 -51 50 -51h16v25h-12q-27 0 -27 26q0 29 27 29h12zM711 756h839l-118 -234h-601zM551 1059h1159l-117 -230h-921zM391 1368h1477l-117 -229h-1241zM2081 1513h-1909l963 -1841 l956 1841h-10zM2081 1561h76l-1018 -1983l-1037 1983h1979z"/>
<glyph glyph-name="Atilde" horiz-adv-x="2361" unicode="Ã" d="M78 1554h2160v-30h-32q-2 -3 -3 -6h-2089q283 -521 681 -1156q94 -100 174 -100q91 0 108 131q25 184 25 273q0 143 -47 143h-11q-9 0 -22 -8q-91 -57 -111 -60l244 709v-1894l-1074 1962h-3v6v30zM2238 1524v-6h-3zM2235 1518h-32q-292 -521 -690 -1156 q-86 -100 -170 -100q-92 0 -112 131q-25 160 -25 264q0 152 54 152h8q6 0 127 -68l-240 709v-1894z"/>
<glyph glyph-name="Adieresis" horiz-adv-x="1223" unicode="Ä" d="M-18 0l643 1522l616 -1522h-145l-187 496h-598l-194 -496h-135zM356 610h510l-250 637zM340 1766q0 40 28 69t68 29t69 -29t29 -69q0 -42 -28 -69t-70 -27q-96 0 -96 96zM690 1766q0 40 29 69t69 29t68 -29t28 -69q0 -96 -96 -96q-42 0 -70 27t-28 69z"/>
<glyph glyph-name="Aring" horiz-adv-x="1223" unicode="Å" d="M-18 0l624 1460h39l596 -1460h-145l-187 496h-598l-194 -496h-135zM356 610h510l-250 633zM389 1737q0 101 67.5 168t168.5 67q100 0 167.5 -67.5t67.5 -167.5t-67.5 -168t-167.5 -68t-168 68t-68 168zM492 1737q0 -56 38.5 -94.5t94.5 -38.5t94.5 38.5t38.5 94.5 t-38.5 94.5t-94.5 38.5t-94.5 -38.5t-38.5 -94.5z"/>
<glyph glyph-name="AE" horiz-adv-x="1688" unicode="Æ" d="M135 0h-127l529 1464h618l41 -125h-506l158 -458h526l43 -125h-526l215 -631h532l41 -125h-665l-170 496h-533zM348 610h457l-217 662z"/>
<glyph glyph-name="Ccedilla" horiz-adv-x="1464" unicode="Ç" d="M1358 1196q-213 184 -463 184q-287 0 -463 -180.5t-176 -468.5q0 -290 176 -467q179 -180 445 -180q256 0 473 170v-156q-224 -137 -467 -137q-334 0 -552 216t-218 554q0 337 219.5 551.5t550.5 214.5q281 0 477 -154zM649 -379v70q162 -33 225 -33q125 0 125 88 q0 90 -141 90q-7 0 -20.5 -1t-20.5 -1v166h61v-100h15q213 0 213 -152q0 -164 -215 -164q-98 0 -242 37z"/>
<glyph glyph-name="Egrave" horiz-adv-x="1051" unicode="È" d="M182 0v1464h725v-125h-592v-458h592v-125h-592v-631h592v-125h-725zM674 1608h-94l-283 350h164z"/>
<glyph glyph-name="Eacute" horiz-adv-x="1051" unicode="É" d="M182 0v1464h725v-125h-592v-458h592v-125h-592v-631h592v-125h-725zM408 1608l213 350h164l-283 -350h-94z"/>
<glyph glyph-name="Ecircumflex" horiz-adv-x="1051" unicode="Ê" d="M182 0v1464h725v-125h-592v-458h592v-125h-592v-631h592v-125h-725zM254 1608l213 350h146l213 -350h-92l-193 250l-195 -250h-92z"/>
<glyph glyph-name="Edieresis" horiz-adv-x="1051" unicode="Ë" d="M182 0v1464h725v-125h-592v-458h592v-125h-592v-631h592v-125h-725zM269 1766q0 40 28 69t68 29t69 -29t29 -69q0 -42 -28 -69t-70 -27q-96 0 -96 96zM619 1766q0 40 29 69t69 29t68 -29t28 -69q0 -96 -96 -96q-42 0 -70 27t-28 69z"/>
<glyph glyph-name="Igrave" horiz-adv-x="498" unicode="Ì" d="M182 0v1464h133v-1464h-133zM383 1608h-94l-283 350h164z"/>
<glyph glyph-name="Iacute" horiz-adv-x="498" unicode="Í" d="M182 0v1464h133v-1464h-133zM117 1608l213 350h164l-283 -350h-94z"/>
<glyph glyph-name="Icircumflex" horiz-adv-x="498" unicode="Î" d="M182 0v1464h133v-1464h-133zM-37 1608l213 350h146l213 -350h-92l-193 250l-195 -250h-92z"/>
<glyph glyph-name="Idieresis" horiz-adv-x="498" unicode="Ï" d="M182 0v1464h133v-1464h-133zM-22 1766q0 40 28 69t68 29t69 -29t29 -69q0 -42 -28 -69t-70 -27q-96 0 -96 96zM328 1766q0 40 29 69t69 29t68 -29t28 -69q0 -96 -96 -96q-42 0 -70 27t-28 69z"/>
<glyph glyph-name="Eth" horiz-adv-x="1673" unicode="Ð" d="M1382 1096q-181 280 -512 280q-281 0 -451 -192q-163 -184 -163 -469q0 -271 178 -453q174 -178 436 -178q242 0 396 140q159 144 163 384h-505v115h651v-16q0 -345 -185 -543q-190 -203 -532 -203q-339 0 -544 216q-201 211 -201 552q0 328 202 543q212 225 537 225 q452 0 627 -317zM564 1862h79q21 -129 195 -129q172 0 193 129h81q-23 -240 -274 -240t-274 240z"/>
<glyph glyph-name="Ntilde" horiz-adv-x="1526" unicode="Ñ" d="M182 0v1526l1037 -1225v1163h124v-1507l-1036 1227v-1184h-125zM1055 1872q-51 -184 -199 -184q-35 0 -65 10l-80 27q-24 8 -58 8q-61 0 -92 -61h-88q45 178 199 178q36 0 59 -8l78 -27q29 -10 61 -10q73 0 97 67h88z"/>
<glyph glyph-name="Ograve" horiz-adv-x="1792" unicode="Ò" d="M1679 729q0 -319 -229.5 -543.5t-554.5 -224.5t-553.5 225.5t-228.5 542.5q0 320 229 547q223 221 553 221q331 0 555 -221q229 -226 229 -547zM895 80q268 0 455.5 188.5t187.5 460.5q0 270 -188 461q-185 188 -455 188q-267 0 -454 -189t-187 -460q0 -270 188 -461 q185 -188 453 -188zM1030 1608h-94l-283 350h164z"/>
<glyph glyph-name="Oacute" horiz-adv-x="1792" unicode="Ó" d="M1679 729q0 -319 -229.5 -543.5t-554.5 -224.5t-553.5 225.5t-228.5 542.5q0 320 229 547q223 221 553 221q331 0 555 -221q229 -226 229 -547zM895 80q268 0 455.5 188.5t187.5 460.5q0 270 -188 461q-185 188 -455 188q-267 0 -454 -189t-187 -460q0 -270 188 -461 q185 -188 453 -188zM764 1608l213 350h164l-283 -350h-94z"/>
<glyph glyph-name="Ocircumflex" horiz-adv-x="1792" unicode="Ô" d="M1679 729q0 -319 -229.5 -543.5t-554.5 -224.5t-553.5 225.5t-228.5 542.5q0 320 229 547q223 221 553 221q331 0 555 -221q229 -226 229 -547zM895 80q268 0 455.5 188.5t187.5 460.5q0 270 -188 461q-185 188 -455 188q-267 0 -454 -189t-187 -460q0 -270 188 -461 q185 -188 453 -188zM610 1608l213 350h146l213 -350h-92l-193 250l-195 -250h-92z"/>
<glyph glyph-name="Otilde" horiz-adv-x="1792" unicode="Õ" d="M1679 729q0 -319 -229.5 -543.5t-554.5 -224.5t-553.5 225.5t-228.5 542.5q0 320 229 547q223 221 553 221q331 0 555 -221q229 -226 229 -547zM895 80q268 0 455.5 188.5t187.5 460.5q0 270 -188 461q-185 188 -455 188q-267 0 -454 -189t-187 -460q0 -270 188 -461 q185 -188 453 -188zM1188 1872q-51 -184 -199 -184q-35 0 -65 10l-80 27q-24 8 -58 8q-61 0 -92 -61h-88q45 178 199 178q36 0 59 -8l78 -27q29 -10 61 -10q73 0 97 67h88z"/>
<glyph glyph-name="Odieresis" horiz-adv-x="1792" unicode="Ö" d="M1679 729q0 -319 -229.5 -543.5t-554.5 -224.5t-553.5 225.5t-228.5 542.5q0 320 229 547q223 221 553 221q331 0 555 -221q229 -226 229 -547zM895 80q268 0 455.5 188.5t187.5 460.5q0 270 -188 461q-185 188 -455 188q-267 0 -454 -189t-187 -460q0 -270 188 -461 q185 -188 453 -188zM625 1766q0 40 28 69t68 29t69 -29t29 -69q0 -42 -28 -69t-70 -27q-96 0 -96 96zM975 1766q0 40 29 69t69 29t68 -29t28 -69q0 -96 -96 -96q-42 0 -70 27t-28 69z"/>
<glyph glyph-name="multiply" horiz-adv-x="1706" unicode="×" d="M854 668l487 487l58 -57l-488 -488l488 -487l-58 -57l-487 487l-487 -487l-58 57l488 487l-488 488l58 57z"/>
<glyph glyph-name="Oslash" horiz-adv-x="1792" unicode="Ø" d="M219 -45l-65 70l176 180q-217 209 -217 526q0 319 229.5 543.5t552.5 224.5q306 0 514 -186l184 192l70 -67l-186 -191q202 -219 202 -516q0 -320 -228 -542t-566 -222q-273 0 -488 172zM1319 1221q-183 159 -424 159q-268 0 -453.5 -188.5t-185.5 -460.5 q0 -239 166 -434zM489 233q190 -149 406 -149q266 0 454.5 189.5t188.5 457.5q0 231 -154 422z"/>
<glyph glyph-name="Ugrave" horiz-adv-x="1417" unicode="Ù" d="M176 1464h131v-956q0 -428 402 -428q399 0 399 428v956h133v-913q0 -590 -532 -590q-533 0 -533 590v913zM842 1608h-94l-283 350h164z"/>
<glyph glyph-name="Uacute" horiz-adv-x="1417" unicode="Ú" d="M176 1464h131v-956q0 -428 402 -428q399 0 399 428v956h133v-913q0 -590 -532 -590q-533 0 -533 590v913zM576 1608l213 350h164l-283 -350h-94z"/>
<glyph glyph-name="Ucircumflex" horiz-adv-x="1417" unicode="Û" d="M176 1464h131v-956q0 -428 402 -428q399 0 399 428v956h133v-913q0 -590 -532 -590q-533 0 -533 590v913zM422 1608l213 350h146l213 -350h-92l-193 250l-195 -250h-92z"/>
<glyph glyph-name="Udieresis" horiz-adv-x="1417" unicode="Ü" d="M176 1464h131v-956q0 -428 402 -428q399 0 399 428v956h133v-913q0 -590 -532 -590q-533 0 -533 590v913zM437 1766q0 40 28 69t68 29t69 -29t29 -69q0 -42 -28 -69t-70 -27q-96 0 -96 96zM787 1766q0 40 29 69t69 29t68 -29t28 -69q0 -96 -96 -96q-42 0 -70 27t-28 69z "/>
<glyph glyph-name="Yacute" horiz-adv-x="498" unicode="Ý" d="M182 0v1464h133v-1464h-133zM148 1766q0 42 30 73t72 31q43 0 72.5 -30.5t29.5 -73.5q0 -42 -30 -72.5t-72 -30.5t-72 30.5t-30 72.5z"/>
<glyph glyph-name="Thorn" horiz-adv-x="1020" unicode="Þ" d="M70 246l114 61q67 -227 299 -227q142 0 220 84q75 82 75 225q0 126 -83 209q-53 53 -195 129q-181 96 -250 161q-117 109 -117 259q0 161 110 259q105 93 269 93q222 0 324 -186l-103 -62q-66 129 -229 129q-108 0 -172 -63.5t-64 -171.5q0 -154 254 -287l70 -37 q165 -91 229 -168q84 -102 84 -264q0 -198 -115 -313t-313 -115q-291 0 -407 285zM299 -379v70q162 -33 225 -33q125 0 125 88q0 90 -141 90q-7 0 -20.5 -1t-20.5 -1v166h61v-100h15q213 0 213 -152q0 -164 -215 -164q-98 0 -242 37z"/>
<glyph glyph-name="germandbls" horiz-adv-x="1059" unicode="ß" d="M154 0v782h-121v105h121v297q0 180 87 280q92 107 269 107q172 0 267 -110q91 -104 91 -279q0 -234 -217 -318q310 -35 310 -432q0 -209 -107 -338q-115 -139 -319 -139q-58 0 -123 25v131q60 -31 131 -31q149 0 223 106q65 92 65 248q0 367 -325 367q-12 0 -27 -1 l-45 -3v124h24q17 -1 25 -1q258 0 258 270q0 268 -241 268q-145 0 -197 -121q-27 -62 -27 -227v-1110h-122z"/>
<glyph glyph-name="agrave" horiz-adv-x="1108" unicode="à" d="M819 0v162q-90 -201 -311 -201q-201 0 -316 141q-108 131 -108 336q0 200 104 335q114 147 308 147q232 0 323 -195v162h123v-887h-123zM221 434q0 -160 68 -253q77 -105 231 -105t233 118q68 102 68 263q0 153 -72 246q-79 104 -227 104q-152 0 -232 -115 q-69 -99 -69 -258zM688 1030h-94l-283 350h164z"/>
<glyph glyph-name="aacute" horiz-adv-x="1108" unicode="á" d="M819 0v162q-90 -201 -311 -201q-201 0 -316 141q-108 131 -108 336q0 200 104 335q114 147 308 147q232 0 323 -195v162h123v-887h-123zM221 434q0 -160 68 -253q77 -105 231 -105t233 118q68 102 68 263q0 153 -72 246q-79 104 -227 104q-152 0 -232 -115 q-69 -99 -69 -258zM422 1030l213 350h164l-283 -350h-94z"/>
<glyph glyph-name="acircumflex" horiz-adv-x="1108" unicode="â" d="M819 0v162q-90 -201 -311 -201q-201 0 -316 141q-108 131 -108 336q0 200 104 335q114 147 308 147q232 0 323 -195v162h123v-887h-123zM221 434q0 -160 68 -253q77 -105 231 -105t233 118q68 102 68 263q0 153 -72 246q-79 104 -227 104q-152 0 -232 -115 q-69 -99 -69 -258zM268 1030l213 350h146l213 -350h-92l-193 250l-195 -250h-92z"/>
<glyph glyph-name="atilde" horiz-adv-x="1108" unicode="ã" d="M819 0v162q-90 -201 -311 -201q-201 0 -316 141q-108 131 -108 336q0 200 104 335q114 147 308 147q232 0 323 -195v162h123v-887h-123zM221 434q0 -160 68 -253q77 -105 231 -105t233 118q68 102 68 263q0 153 -72 246q-79 104 -227 104q-152 0 -232 -115 q-69 -99 -69 -258zM846 1294q-51 -184 -199 -184q-35 0 -65 10l-80 27q-24 8 -58 8q-61 0 -92 -61h-88q45 178 199 178q36 0 59 -8l78 -27q29 -10 61 -10q73 0 97 67h88z"/>
<glyph glyph-name="adieresis" horiz-adv-x="1108" unicode="ä" d="M819 0v162q-90 -201 -311 -201q-201 0 -316 141q-108 131 -108 336q0 200 104 335q114 147 308 147q232 0 323 -195v162h123v-887h-123zM221 434q0 -160 68 -253q77 -105 231 -105t233 118q68 102 68 263q0 153 -72 246q-79 104 -227 104q-152 0 -232 -115 q-69 -99 -69 -258zM283 1188q0 40 28 69t68 29t69 -29t29 -69q0 -42 -28 -69t-70 -27q-96 0 -96 96zM633 1188q0 40 29 69t69 29t68 -29t28 -69q0 -96 -96 -96q-42 0 -70 27t-28 69z"/>
<glyph glyph-name="aring" horiz-adv-x="1108" unicode="å" d="M291 1221q0 100 67.5 167.5t167.5 67.5t168 -67.5t68 -167.5t-68 -168t-168 -68q-99 0 -167 68.5t-68 167.5zM393 1221q0 -56 38.5 -95t94.5 -39t94.5 39t38.5 95t-38.5 95.5t-94.5 39.5t-94.5 -39.5t-38.5 -95.5zM819 0v162q-90 -201 -311 -201q-201 0 -316 141 q-108 131 -108 336q0 200 104 335q114 147 308 147q232 0 323 -195v162h123v-887h-123zM221 434q0 -160 68 -253q77 -105 231 -105t233 118q68 102 68 263q0 153 -72 246q-79 104 -227 104q-152 0 -232 -115q-69 -99 -69 -258z"/>
<glyph glyph-name="ae" horiz-adv-x="1624" unicode="æ" d="M702 270q0 87 -84 132q-67 36 -163 36q-104 0 -170 -41q-78 -49 -78 -147q0 -176 233 -176q102 0 176 46q86 53 86 150zM838 543h551q-8 123 -81 190.5t-196 67.5q-114 0 -188 -72t-86 -186zM1534 438h-705q5 -154 72 -251q78 -113 223 -113q205 0 299 211l117 -62 q-136 -264 -414 -264q-243 0 -362 221q-78 -221 -356 -221q-142 0 -235 71q-101 78 -101 216q0 144 112 225q100 72 250 72q174 0 276 -88q3 18 3 65q0 293 -275 293q-153 0 -301 -78l2 131q150 54 310 54q118 0 205 -39q109 -49 137 -148q101 187 329 187q198 0 310 -134 q104 -125 104 -327v-21z"/>
<glyph glyph-name="ccedilla" horiz-adv-x="934" unicode="ç" d="M854 725q-124 86 -276 86q-170 0 -267 -110q-94 -105 -94 -277q0 -158 101.5 -258t259.5 -100q148 0 290 100v-135q-130 -74 -313 -74q-206 0 -334.5 134t-128.5 341q0 218 135 353t353 135q162 0 276 -60zM334 -379v70q162 -33 225 -33q125 0 125 88q0 90 -141 90 q-7 0 -20.5 -1t-20.5 -1v166h61v-100h15q213 0 213 -152q0 -164 -215 -164q-98 0 -242 37z"/>
<glyph glyph-name="egrave" horiz-adv-x="1018" unicode="è" d="M926 440h-705q5 -157 74 -255q80 -113 229 -113q197 0 295 213l113 -62q-132 -262 -408 -262q-202 0 -322 137q-114 131 -114 336q0 208 110 342q119 144 322 144q193 0 303 -132q103 -124 103 -321v-27zM780 545q-19 256 -276 256q-114 0 -188.5 -70.5t-86.5 -185.5h551 zM643 1030h-94l-283 350h164z"/>
<glyph glyph-name="eacute" horiz-adv-x="1018" unicode="é" d="M926 440h-705q5 -157 74 -255q80 -113 229 -113q197 0 295 213l113 -62q-132 -262 -408 -262q-202 0 -322 137q-114 131 -114 336q0 208 110 342q119 144 322 144q193 0 303 -132q103 -124 103 -321v-27zM780 545q-19 256 -276 256q-114 0 -188.5 -70.5t-86.5 -185.5h551 zM377 1030l213 350h164l-283 -350h-94z"/>
<glyph glyph-name="ecircumflex" horiz-adv-x="1018" unicode="ê" d="M926 440h-705q5 -157 74 -255q80 -113 229 -113q197 0 295 213l113 -62q-132 -262 -408 -262q-202 0 -322 137q-114 131 -114 336q0 208 110 342q119 144 322 144q193 0 303 -132q103 -124 103 -321v-27zM780 545q-19 256 -276 256q-114 0 -188.5 -70.5t-86.5 -185.5h551 zM223 1030l213 350h146l213 -350h-92l-193 250l-195 -250h-92z"/>
<glyph glyph-name="edieresis" horiz-adv-x="1018" unicode="ë" d="M926 440h-705q5 -157 74 -255q80 -113 229 -113q197 0 295 213l113 -62q-132 -262 -408 -262q-202 0 -322 137q-114 131 -114 336q0 208 110 342q119 144 322 144q193 0 303 -132q103 -124 103 -321v-27zM780 545q-19 256 -276 256q-114 0 -188.5 -70.5t-86.5 -185.5h551 zM238 1188q0 40 28 69t68 29t69 -29t29 -69q0 -42 -28 -69t-70 -27q-96 0 -96 96zM588 1188q0 40 29 69t69 29t68 -29t28 -69q0 -96 -96 -96q-42 0 -70 27t-28 69z"/>
<glyph glyph-name="igrave" horiz-adv-x="471" unicode="ì" d="M172 0v887h127v-887h-127zM369 1030h-94l-283 350h164z"/>
<glyph glyph-name="iacute" horiz-adv-x="471" unicode="í" d="M172 0v887h127v-887h-127zM103 1030l213 350h164l-283 -350h-94z"/>
<glyph glyph-name="icircumflex" horiz-adv-x="471" unicode="î" d="M172 0v887h127v-887h-127zM-51 1030l213 350h146l213 -350h-92l-193 250l-195 -250h-92z"/>
<glyph glyph-name="idieresis" horiz-adv-x="471" unicode="ï" d="M172 0v887h127v-887h-127zM-36 1188q0 40 28 69t68 29t69 -29t29 -69q0 -42 -28 -69t-70 -27q-96 0 -96 96zM314 1188q0 40 29 69t69 29t68 -29t28 -69q0 -96 -96 -96q-42 0 -70 27t-28 69z"/>
<glyph glyph-name="eth" horiz-adv-x="1108" unicode="ð" d="M520 807q-150 0 -229 -113q-68 -99 -68 -256q0 -155 64 -250q74 -112 221 -112q153 0 237 113q76 101 76 260q0 157 -71 252q-79 106 -230 106zM944 887v-733q0 -317 -41 -404q-93 -196 -381 -196q-353 0 -395 276h154q30 -166 251 -166q237 0 278 185q9 44 9 135v180 q-88 -203 -319 -203q-199 0 -310 143q-100 130 -100 336q0 205 104 337q113 143 312 143q103 0 187 -52q88 -54 126 -147v166h125zM281 1284h79q21 -129 195 -129q172 0 193 129h81q-23 -240 -274 -240t-274 240z"/>
<glyph glyph-name="ntilde" horiz-adv-x="1067" unicode="ñ" d="M164 0v887h117v-137q108 170 313 170q151 0 235 -83.5t84 -234.5v-602h-125v547q0 262 -227 262q-274 0 -274 -346v-463h-123zM826 1294q-51 -184 -199 -184q-35 0 -65 10l-80 27q-24 8 -58 8q-61 0 -92 -61h-88q45 178 199 178q36 0 59 -8l78 -27q29 -10 61 -10 q73 0 97 67h88z"/>
<glyph glyph-name="ograve" horiz-adv-x="1143" unicode="ò" d="M567 -39q-193 0 -340 145q-137 135 -137 336q0 199 139.5 338.5t337.5 139.5q202 0 344 -140t142 -338q0 -197 -140 -336q-146 -145 -346 -145zM571 76q150 0 251 108q98 105 98 256q0 152 -99 258.5t-250 106.5t-249.5 -106.5t-98.5 -258.5q0 -151 98 -256 q100 -108 250 -108zM704 1030h-94l-283 350h164z"/>
<glyph glyph-name="oacute" horiz-adv-x="1143" unicode="ó" d="M567 -39q-193 0 -340 145q-137 135 -137 336q0 199 139.5 338.5t337.5 139.5q202 0 344 -140t142 -338q0 -197 -140 -336q-146 -145 -346 -145zM571 76q150 0 251 108q98 105 98 256q0 152 -99 258.5t-250 106.5t-249.5 -106.5t-98.5 -258.5q0 -151 98 -256 q100 -108 250 -108zM438 1030l213 350h164l-283 -350h-94z"/>
<glyph glyph-name="ocircumflex" horiz-adv-x="1143" unicode="ô" d="M567 -39q-193 0 -340 145q-137 135 -137 336q0 199 139.5 338.5t337.5 139.5q202 0 344 -140t142 -338q0 -197 -140 -336q-146 -145 -346 -145zM571 76q150 0 251 108q98 105 98 256q0 152 -99 258.5t-250 106.5t-249.5 -106.5t-98.5 -258.5q0 -151 98 -256 q100 -108 250 -108zM284 1030l213 350h146l213 -350h-92l-193 250l-195 -250h-92z"/>
<glyph glyph-name="otilde" horiz-adv-x="1143" unicode="õ" d="M567 -39q-193 0 -340 145q-137 135 -137 336q0 199 139.5 338.5t337.5 139.5q202 0 344 -140t142 -338q0 -197 -140 -336q-146 -145 -346 -145zM571 76q150 0 251 108q98 105 98 256q0 152 -99 258.5t-250 106.5t-249.5 -106.5t-98.5 -258.5q0 -151 98 -256 q100 -108 250 -108zM862 1294q-51 -184 -199 -184q-35 0 -65 10l-80 27q-24 8 -58 8q-61 0 -92 -61h-88q45 178 199 178q36 0 59 -8l78 -27q29 -10 61 -10q73 0 97 67h88z"/>
<glyph glyph-name="odieresis" horiz-adv-x="1143" unicode="ö" d="M567 -39q-193 0 -340 145q-137 135 -137 336q0 199 139.5 338.5t337.5 139.5q202 0 344 -140t142 -338q0 -197 -140 -336q-146 -145 -346 -145zM571 76q150 0 251 108q98 105 98 256q0 152 -99 258.5t-250 106.5t-249.5 -106.5t-98.5 -258.5q0 -151 98 -256 q100 -108 250 -108zM299 1188q0 40 28 69t68 29t69 -29t29 -69q0 -42 -28 -69t-70 -27q-96 0 -96 96zM649 1188q0 40 29 69t69 29t68 -29t28 -69q0 -96 -96 -96q-42 0 -70 27t-28 69z"/>
<glyph glyph-name="divide" horiz-adv-x="1706" unicode="÷" d="M854 1055q42 0 70 -28.5t28 -70.5q0 -41 -28.5 -70.5t-69.5 -29.5t-69.5 29.5t-28.5 70.5t28.5 70t69.5 29zM1452 651v-82h-1198v82h1198zM854 365q42 0 70 -29.5t28 -71.5q0 -41 -28.5 -69.5t-69.5 -28.5t-69.5 28.5t-28.5 69.5t28.5 71t69.5 30z"/>
<glyph glyph-name="oslash" horiz-adv-x="1143" unicode="ø" d="M793 723q-88 82 -211 82q-162 0 -260.5 -104t-98.5 -267q0 -114 70 -213zM346 160q100 -82 217 -82q157 0 256 104t99 262q0 114 -68 220zM147 -41l-55 59l111 113q-115 142 -115 301q0 209 139 348.5t348 139.5q164 0 302 -111l110 113l62 -58l-113 -110 q117 -145 117 -310q0 -210 -141.5 -346.5t-352.5 -136.5q-161 0 -295 113z"/>
<glyph glyph-name="ugrave" horiz-adv-x="1079" unicode="ù" d="M287 887v-443q0 -175 40 -255q57 -113 212 -113q154 0 212 114q42 81 42 254v443h122v-506q0 -420 -374 -420q-377 0 -377 420v506h123zM674 1030h-94l-283 350h164z"/>
<glyph glyph-name="uacute" horiz-adv-x="1079" unicode="ú" d="M287 887v-443q0 -175 40 -255q57 -113 212 -113q154 0 212 114q42 81 42 254v443h122v-506q0 -420 -374 -420q-377 0 -377 420v506h123zM408 1030l213 350h164l-283 -350h-94z"/>
<glyph glyph-name="ucircumflex" horiz-adv-x="1079" unicode="û" d="M287 887v-443q0 -175 40 -255q57 -113 212 -113q154 0 212 114q42 81 42 254v443h122v-506q0 -420 -374 -420q-377 0 -377 420v506h123zM254 1030l213 350h146l213 -350h-92l-193 250l-195 -250h-92z"/>
<glyph glyph-name="udieresis" horiz-adv-x="1079" unicode="ü" d="M287 887v-443q0 -175 40 -255q57 -113 212 -113q154 0 212 114q42 81 42 254v443h122v-506q0 -420 -374 -420q-377 0 -377 420v506h123zM269 1188q0 40 28 69t68 29t69 -29t29 -69q0 -42 -28 -69t-70 -27q-96 0 -96 96zM619 1188q0 40 29 69t69 29t68 -29t28 -69 q0 -96 -96 -96q-42 0 -70 27t-28 69z"/>
<glyph glyph-name="yacute" horiz-adv-x="471" unicode="ý" d="M172 0v887h127v-887h-127z"/>
<glyph glyph-name="thorn" horiz-adv-x="782" unicode="þ" d="M63 158l117 67q58 -149 219 -149q73 0 119 35q51 39 51 110q0 102 -181 173q-11 5 -30 12q-118 47 -171 91q-81 67 -81 167q0 119 85 191q81 67 202 67q222 0 295 -181l-113 -63q-43 129 -190 129q-61 0 -102 -35q-45 -37 -45 -96q0 -70 75 -115q33 -20 136 -55 q127 -44 179 -94q68 -65 68 -183q0 -132 -98 -204q-87 -64 -223 -64q-237 0 -312 197zM180 -379v70q162 -33 225 -33q125 0 125 88q0 90 -141 90q-7 0 -20.5 -1t-20.5 -1v166h61v-100h15q213 0 213 -152q0 -164 -215 -164q-98 0 -242 37z"/>
<glyph glyph-name="dotlessi" horiz-adv-x="471" unicode="ı" d="M172 0v887h127v-887h-127z"/>
<glyph glyph-name="OE" horiz-adv-x="2320" unicode="Œ" d="M242 731q0 -265 184 -459q176 -186 436 -186q262 0 436 184q181 191 181 461q0 280 -172 459q-181 188 -445 188q-258 0 -436 -186q-184 -192 -184 -461zM2181 1464v-125h-575v-458h575v-125h-575v-631h575v-125h-698v311q-202 -346 -617 -346q-209 0 -379 103 q-374 227 -374 665q0 321 219 541q224 225 547 225q399 0 604 -338v303h698z"/>
<glyph glyph-name="oe" horiz-adv-x="1841" unicode="œ" d="M1749 442h-705q0 -150 70 -251q80 -115 223 -115q207 0 301 213l117 -64q-137 -264 -403 -264q-128 0 -229 59q-110 64 -148 179q-120 -238 -406 -238q-200 0 -338.5 139.5t-138.5 341.5q0 199 140.5 339.5t330.5 140.5q291 0 412 -234q43 113 144 175q95 59 220 59 q196 0 307 -134q103 -124 103 -325v-21zM1053 545h551q-8 123 -81 191.5t-196 68.5q-113 0 -189 -73.5t-85 -186.5zM573 76q150 0 251 108q98 105 98 256q0 152 -99 258.5t-250 106.5t-249.5 -106.5t-98.5 -258.5q0 -151 98 -256q100 -108 250 -108z"/>
<glyph glyph-name="Scaron" horiz-adv-x="1020" unicode="Š" d="M70 246l114 61q67 -227 299 -227q142 0 220 84q75 82 75 225q0 126 -83 209q-53 53 -195 129q-181 96 -250 161q-117 109 -117 259q0 161 110 259q105 93 269 93q222 0 324 -186l-103 -62q-66 129 -229 129q-108 0 -172 -63.5t-64 -171.5q0 -154 254 -287l70 -37 q165 -91 229 -168q84 -102 84 -264q0 -198 -115 -313t-313 -115q-291 0 -407 285zM795 1958l-213 -350h-146l-213 350h92l195 -250l193 250h92z"/>
<glyph glyph-name="scaron" horiz-adv-x="782" unicode="š" d="M63 158l117 67q58 -149 219 -149q73 0 119 35q51 39 51 110q0 102 -181 173q-11 5 -30 12q-118 47 -171 91q-81 67 -81 167q0 119 85 191q81 67 202 67q222 0 295 -181l-113 -63q-43 129 -190 129q-61 0 -102 -35q-45 -37 -45 -96q0 -70 75 -115q33 -20 136 -55 q127 -44 179 -94q68 -65 68 -183q0 -132 -98 -204q-87 -64 -223 -64q-237 0 -312 197zM676 1380l-213 -350h-146l-213 350h92l195 -250l193 250h92z"/>
<glyph glyph-name="Ydieresis" horiz-adv-x="1118" unicode="Ÿ" d="M496 0v674l-486 790h160l393 -671l395 671h152l-481 -790v-674h-133zM287 1766q0 40 28 69t68 29t69 -29t29 -69q0 -42 -28 -69t-70 -27q-96 0 -96 96zM637 1766q0 40 29 69t69 29t68 -29t28 -69q0 -96 -96 -96q-42 0 -70 27t-28 69z"/>
<glyph glyph-name="circumflex" d="M225 1030l213 350h146l213 -350h-92l-193 250l-195 -250h-92z" unicode="ˆ"/>
<glyph glyph-name="caron" d="M797 1380l-213 -350h-146l-213 350h92l195 -250l193 250h92z" unicode="ˇ"/>
<glyph glyph-name="breve" d="M238 1284h79q21 -129 195 -129q172 0 193 129h81q-23 -240 -274 -240t-274 240z" unicode="˘"/>
<glyph glyph-name="dotaccent" d="M410 1188q0 42 30 73t72 31q43 0 72.5 -30.5t29.5 -73.5q0 -42 -30 -72.5t-72 -30.5t-72 30.5t-30 72.5z" unicode="˙"/>
<glyph glyph-name="tilde" d="M803 1294q-51 -184 -199 -184q-35 0 -65 10l-80 27q-24 8 -58 8q-61 0 -92 -61h-88q45 178 199 178q36 0 59 -8l78 -27q29 -10 61 -10q73 0 97 67h88z" unicode="˜"/>
<glyph glyph-name="pi" horiz-adv-x="1155" unicode="π" d="M1102 958h-182l-119 -565q-29 -138 -29 -188q0 -107 109 -107q52 0 92 10l-25 -108q-52 -16 -96 -16q-93 0 -146 54.5t-53 147.5q0 83 56 351l88 421h-381l-203 -958h-121l201 958h-39q-106 0 -127 -133h-121q26 138 88 188t203 50h829z"/>
<glyph glyph-name="endash" d="M0 481h1024v-80h-1024v80z" unicode="–"/>
<glyph glyph-name="emdash" horiz-adv-x="2048" unicode="—" d="M0 401v80h2048v-80h-2048z"/>
<glyph glyph-name="quoteleft" horiz-adv-x="590" unicode="‘" d="M467 1466l-195 -540l-149 67l262 504z"/>
<glyph glyph-name="quotesinglbase" horiz-adv-x="590" unicode="‚" d="M324 254l145 -61l-264 -515l-84 39z"/>
<glyph glyph-name="quotedblleft" horiz-adv-x="877" unicode="“" d="M449 1466l-195 -540l-148 67l261 504zM772 1466l-194 -540l-150 67l262 504z"/>
<glyph glyph-name="quotedblright" horiz-adv-x="877" unicode="”" d="M106 958l193 539l150 -65l-263 -506zM428 958l195 539l149 -65l-262 -506z"/>
<glyph glyph-name="dagger" horiz-adv-x="1042" unicode="†" d="M461 -446v1220h-361v115h361v575h123v-575h360v-115h-360v-1220h-123z"/>
<glyph glyph-name="daggerdbl" horiz-adv-x="1042" unicode="‡" d="M459 -446v485h-359v113h359v720h-359v113h359v479h123v-479h362v-113h-362v-720h362v-113h-362v-485h-123z"/>
<glyph glyph-name="ellipsis" horiz-adv-x="2048" unicode="…" d="M240 84q0 43 29.5 72.5t72.5 29.5t72.5 -29.5t29.5 -72.5t-29.5 -72.5t-72.5 -29.5t-72.5 29.5t-29.5 72.5zM922 84q0 43 29.5 72.5t72.5 29.5t72.5 -29.5t29.5 -72.5t-29.5 -72.5t-72.5 -29.5t-72.5 29.5t-29.5 72.5zM1606 84q0 43 29.5 72.5t72.5 29.5t72.5 -29.5 t29.5 -72.5t-29.5 -72.5t-72.5 -29.5t-72.5 29.5t-29.5 72.5z"/>
<glyph glyph-name="perthousand" horiz-adv-x="2204" unicode="‰" d="M270 -39l840 1518h109l-842 -1518h-107zM649 1104q0 -161 -66 -259q-77 -116 -229 -116t-228 116q-65 99 -65 259t65 259q76 116 228 116t229 -116q66 -98 66 -259zM180 1106q0 -283 174 -283q176 0 176 283q0 280 -176 280q-174 0 -174 -280zM1434 334q0 -160 -66 -258 q-77 -115 -229 -115t-228 115q-65 97 -65 258t65 259q76 116 228 116t229 -116q66 -98 66 -259zM965 336q0 -283 174 -283q176 0 176 283q0 280 -176 280q-174 0 -174 -280zM2142 334q0 -161 -65 -258q-76 -115 -228 -115t-229 115q-66 98 -66 258q0 161 66 259 q77 116 229 116t228 -116q65 -98 65 -259zM1673 336q0 -283 176 -283q174 0 174 283q0 280 -174 280q-176 0 -176 -280z"/>
<glyph glyph-name="guilsinglleft" horiz-adv-x="422" unicode="‹" d="M295 51l-252 385l244 395l86 -51l-209 -346l215 -332z"/>
<glyph glyph-name="guilsinglright" horiz-adv-x="422" unicode="›" d="M125 51l-82 51l215 332l-211 346l88 51l244 -395z"/>
<glyph glyph-name="fraction" horiz-adv-x="342" unicode="⁄" d="M-342 -39l917 1518h107l-915 -1518h-109z"/>
<glyph glyph-name="trademark" horiz-adv-x="1706" unicode="™" d="M694 1454v-51h-174v-479h-67v479h-179v51h420zM926 1454l174 -440l162 440h102v-530h-59v479l-181 -479h-49l-190 479v-479h-60v530h101z"/>
<glyph glyph-name="partialdiff" d="M713 459q0 256 -185 256q-141 0 -212 -167q-52 -125 -52 -288q0 -242 185 -242q136 0 208 162q56 125 56 279zM750 578q22 138 22 305q0 354 -154 354q-39 0 -99.5 -73.5t-108.5 -73.5q-68 0 -68 65q0 69 74 110q61 35 135 35q188 0 279 -192q69 -145 69 -356 q0 -266 -96 -489q-126 -290 -359 -290q-152 0 -236 120q-73 106 -73 265q0 164 99 288q106 132 266 132q191 0 250 -200z" unicode="∂"/>
<glyph glyph-name="product" horiz-adv-x="1491" unicode="∏" d="M164 1473h1163v-1866h-135v1743h-893v-1743h-135v1866z"/>
<glyph glyph-name="summation" horiz-adv-x="1290" unicode="∑" d="M45 1473h1208v-123h-1038l721 -787l-760 -835h1077v-121h-1243v127l752 829l-717 787v123z"/>
<glyph glyph-name="minus" horiz-adv-x="1706" unicode="−" d="M1452 651v-82h-1198v82h1198z"/>
<glyph glyph-name="radical" horiz-adv-x="1264" unicode="√" d="M1264 1626v-61h-129l-596 -1606h-31l-330 907l-110 -39l-15 50l230 79l278 -759l531 1429h172z"/>
<glyph glyph-name="infinity" horiz-adv-x="1706" unicode="∞" d="M836 713q130 274 323 274q142 0 229 -118q80 -107 80 -253q0 -150 -68 -251q-79 -117 -222 -117q-176 0 -308 262q-137 -268 -321 -268q-141 0 -230 117q-81 108 -81 253q0 150 68 252q79 117 222 117q190 0 308 -268zM819 670q-104 204 -287 204q-113 0 -181 -83 q-64 -77 -64 -193q0 -108 56 -186q62 -86 167 -86q109 0 197 125q48 68 112 219zM889 557q107 -205 287 -205q113 0 181 84q64 78 64 193q0 109 -56 187q-62 87 -167 87q-107 0 -196 -126q-49 -69 -113 -220z"/>
<glyph glyph-name="notequal" horiz-adv-x="1706" unicode="≠" d="M1280 1108l-217 -277h389v-79h-440l-219 -283h659v-82h-711l-254 -324l-61 48l215 276h-387v82h436l221 283h-657v79h709l254 326z"/>
<glyph glyph-name="lessequal" horiz-adv-x="1706" unicode="≤" d="M1442 1083l-1043 -350l1043 -352v-88l-1178 405v70l1178 403v-88zM1442 129v-80h-1178v80h1178z"/>
<glyph glyph-name="greaterequal" horiz-adv-x="1706" unicode="≥" d="M1442 768v-70l-1178 -405v88l1043 352l-1043 350v88zM1442 129v-80h-1178v80h1178z"/>
<glyph glyph-name="lozenge" horiz-adv-x="1012" unicode="◊" d="M506 1653l500 -1061l-500 -1069l-500 1069zM506 1409l-385 -817l385 -825l385 825z"/>
</font>
</defs>
</svg>
